SplineFontDB: 3.0
FontName: Gemunu-Sinhala-1
FullName: Gemunu-Sinhala
FamilyName: Gemunu-Sinhala
OS2FamilyName: "AbhayaLibre"
OS2StyleName: "regular"
Weight: Extra
Copyright: Copyright (c) 1997-2015 Pushpananda Ekanayake (http://isiwara.lk), Copyright (c) 2015 mooniak (http://mooniak.com)\n
UComments: "2015-2-15: Created with FontForge (http://fontforge.org) The  Free Font Editor"
Version: 1.0
ItalicAngle: 0
UnderlinePosition: -102
UnderlineWidth: 51
Ascent: 819
Descent: 205
InvalidEm: 0
UFOAscent: 819
UFODescent: -205
LayerCount: 2
Layer: 0 0 "Back" 1
Layer: 1 0 "Fore" 0
FSType: 0
OS2Version: 0
OS2_WeightWidthSlopeOnly: 0
OS2_UseTypoMetrics: 0
CreationTime: 1440051463
ModificationTime: 1447679808
PfmFamily: 16
TTFWeight: 400
TTFWidth: 5
LineGap: 94
VLineGap: 0
OS2TypoAscent: 819
OS2TypoAOffset: 0
OS2TypoDescent: -205
OS2TypoDOffset: 0
OS2TypoLinegap: 94
OS2WinAscent: 918
OS2WinAOffset: 0
OS2WinDescent: 205
OS2WinDOffset: 0
HheadAscent: 918
HheadAOffset: 0
HheadDescent: -205
HheadDOffset: 0
OS2CapHeight: 0
OS2XHeight: 0
OS2Vendor: 'PfEd'
OS2UnicodeRanges: 00000002.00000000.00000000.00000000
Lookup: 1 0 0 "Abhaya Libre Latin-Regular-'sups' Superscript lookup 0" { "Abhaya Libre Latin-Regular-'sups' Superscript lookup 0 subtable"  } ['sups' ('DFLT' <'dflt' > ) ]
Lookup: 4 0 0 "Abhaya Libre Latin-Regular-'frac' Diagonal Fractions lookup 1" { "Abhaya Libre Latin-Regular-'frac' Diagonal Fractions lookup 1 subtable"  } ['frac' ('DFLT' <'dflt' > ) ]
Lookup: 6 0 0 "Abhaya Libre Latin-Regular-'ordn' Ordinals lookup 2" { "Abhaya Libre Latin-Regular-'ordn' Ordinals lookup 2 contextual 0"  "Abhaya Libre Latin-Regular-'ordn' Ordinals lookup 2 contextual 1"  } ['ordn' ('DFLT' <'dflt' > ) ]
Lookup: 1 0 0 "Abhaya Libre Latin-Regular-Single Substitution lookup 3" { "Abhaya Libre Latin-Regular-Single Substitution lookup 3 subtable"  } []
Lookup: 1 0 0 "Abhaya Libre Latin-Regular-Single Substitution lookup 4" { "Abhaya Libre Latin-Regular-Single Substitution lookup 4 subtable"  } []

StartChar: zwj
Encoding: 83 8205 5
GlifName: zwj
Width: 0
VWidth: 0
GlyphClass: 2
Flags: MW
LayerCount: 2
Back
Fore
SplineSet
55.2729 654.956 m 257
 179.729 532 l 257
 123.957 476.901 l 257
 39.5 561.358 l 257
 39.5 -10.5 l 257
 -39.5 -10.5 l 257
 -39.5 561.358 l 257
 -123.957 476.901 l 257
 -179.729 532 l 257
 -55.2729 654.956 l 257
 -179.773 776.456 l 257
 -123.957 831.599 l 257
 5.06054e-14 707.642 l 257
 123.957 831.599 l 257
 179.773 776.456 l 257
 55.2729 654.956 l 257
EndSplineSet
EndChar

StartChar: zwnj
Encoding: 82 8204 6
GlifName: zwnj
Width: 0
VWidth: 0
GlyphClass: 2
Flags: MW
LayerCount: 2
Back
Fore
SplineSet
-39.5 -10.75 m 257
 -39.5 780.75 l 257
 39.5 780.75 l 257
 39.5 -10.75 l 257
 -39.5 -10.75 l 257
EndSplineSet
EndChar

StartChar: si_GR.halant
Encoding: 116 -1 107
GlifName: si_G_R_.halant
Width: 636
VWidth: 0
GlyphClass: 2
Flags: HMW
LayerCount: 2
Back
Fore
SplineSet
30.990234375 -15.8076171875 m 1
 30.990234375 -100.610351562 l 2
 30.990234375 -130.604492188 47.90625 -144.807617188 74.990234375 -144.807617188 c 2
 513 -144.807617188 l 2
 538.333007812 -144.807617188 554 -133.373046875 554 -101.807617188 c 2
 554 -15.8076171875 l 1
 429.995117188 -15.8076171875 l 1
 429.995117188 -32.8076171875 l 2
 429.995117188 -45.685546875 429.279296875 -50.80859375 416.399414062 -50.80859375 c 2
 167.990234375 -50.80859375 l 2
 156.657226562 -50.80859375 154.995117188 -44.80859375 154.995117188 -32.80859375 c 2
 154.995117188 -15.8076171875 l 1
 30.990234375 -15.8076171875 l 1
EndSplineSet
Refer: 103 -1 N 1 0 0 1 0 0 2
EndChar

StartChar: si_GRa
Encoding: 115 -1 110
GlifName: si_G_R_a
Width: 592
VWidth: 0
GlyphClass: 2
Flags: HMW
LayerCount: 2
Back
Fore
SplineSet
31.990234375 -15.8076171875 m 1
 31.990234375 -100.610351562 l 2
 31.990234375 -130.604492188 48.90625 -144.807617188 75.990234375 -144.807617188 c 2
 514 -144.807617188 l 2
 539.333007812 -144.807617188 555 -133.373046875 555 -101.807617188 c 2
 555 -15.8076171875 l 1
 430.995117188 -15.8076171875 l 1
 430.995117188 -32.8076171875 l 2
 430.995117188 -45.685546875 430.279296875 -50.80859375 417.399414062 -50.80859375 c 2
 168.990234375 -50.80859375 l 2
 157.657226562 -50.80859375 155.995117188 -44.80859375 155.995117188 -32.80859375 c 2
 155.995117188 -15.8076171875 l 1
 31.990234375 -15.8076171875 l 1
EndSplineSet
Refer: 439 3484 N 1 0 0 1 0 0 2
EndChar

StartChar: si_HU
Encoding: 410 -1 128
GlifName: si_H_U_
Width: 590
VWidth: 0
GlyphClass: 2
Flags: HMW
LayerCount: 2
Back
Fore
SplineSet
562 -159 m 5
 24 -159 l 5
 24 -53 l 5
 439 -53 l 5
 439 25 l 5
 511 25 l 6
 539.666992188 25 556.666992188 38 562 64 c 5
 562 -159 l 5
EndSplineSet
Refer: 475 3524 N 1 0 0 1 0 0 2
EndChar

StartChar: si_KRI
Encoding: 98 -1 163
GlifName: si_K_R_I_
Width: 592
VWidth: 0
GlyphClass: 2
Flags: HMW
LayerCount: 2
Back
Fore
SplineSet
31.990234375 -15.8076171875 m 1
 31.990234375 -100.610351562 l 2
 31.990234375 -130.604492188 48.90625 -144.807617188 75.990234375 -144.807617188 c 2
 514 -144.807617188 l 2
 539.333007812 -144.807617188 555 -133.373046875 555 -101.807617188 c 2
 555 -15.8076171875 l 1
 430.995117188 -15.8076171875 l 1
 430.995117188 -32.8076171875 l 2
 430.995117188 -45.685546875 430.279296875 -50.80859375 417.399414062 -50.80859375 c 2
 168.990234375 -50.80859375 l 2
 157.657226562 -50.80859375 155.995117188 -44.80859375 155.995117188 -32.80859375 c 2
 155.995117188 -15.8076171875 l 1
 31.990234375 -15.8076171875 l 1
EndSplineSet
Refer: 161 -1 N 1 0 0 1 0 0 2
EndChar

StartChar: si_M.halant
Encoding: 332 -1 201
GlifName: si_M_.halant
Width: 518
VWidth: 1000
GlyphClass: 2
Flags: HMW
LayerCount: 2
Back
Fore
SplineSet
485 400 m 5
 361 400 l 5
 361 441 l 6
 361 459.349108322 354.06133753 464 335 464 c 6
 14 464 l 5
 14 550 l 5
 94 550 l 5
 64.6666666667 557.333333333 50 571.666666666 50 593 c 6
 50 632 l 6
 50 659.333333333 66.3333333333 673 99 673 c 6
 483 673 l 5
 483 589 l 5
 206 589 l 6
 188 589 179 584.333333333 179 575 c 4
 179 565.226440189 186.925753819 558 197 558 c 6
 416 558 l 6
 471.441005527 558 485 533.686193211 485 477 c 6
 485 400 l 5
485 415 m 5
 485 54 l 6
 485 16.2702793286 472.075077523 0 435 0 c 6
 72 0 l 6
 34.0314662294 0 22 15.7515389988 22 54 c 6
 22 373 l 6
 22 404.537647836 42.279533299 427 74 427 c 6
 268 427 l 6
 298.562457337 427 318 408.588234602 318 378 c 6
 318 196 l 6
 318 166.666666667 303.666666667 152 275 152 c 6
 146 152 l 5
 146 129 l 6
 146 114.333333333 152 107 164 107 c 6
 343 107 l 6
 355 107 361 114.333333333 361 129 c 6
 361 415 l 5
 485 415 l 5
143 244 m 5
 186 244 l 6
 196 244 201 250.333333333 201 263 c 6
 201 315 l 6
 201 324.333333333 196 329 186 329 c 6
 161 329 l 6
 149 329 143 324.333333333 143 315 c 6
 143 244 l 5
EndSplineSet
EndChar

StartChar: si_MI
Encoding: 333 -1 202
GlifName: si_M_I_
Width: 518
VWidth: 1000
GlyphClass: 2
Flags: HMW
LayerCount: 2
Back
Fore
SplineSet
485 400 m 5
 361 400 l 5
 361 441 l 6
 361 449.666666667 359.166666667 455.666666667 355.5 459 c 132
 351.833333333 462.333333333 345 464 335 464 c 6
 69 464 l 6
 37.6666666667 464 22 480 22 512 c 6
 22 612 l 6
 22 634 26.5 649.5 35.5 658.5 c 132
 44.5 667.5 60 672 82 672 c 6
 483 672 l 5
 484 589 l 5
 165 590 l 6
 152.333333333 590 146 585.666666667 146 577 c 6
 146 568 l 6
 146 561.333333333 151.666666667 558 163 558 c 6
 416 558 l 6
 443.333333333 558 461.666666667 552 471 540 c 132
 480.333333333 528 485 507 485 477 c 6
 485 400 l 5
485 415 m 5
 485 54 l 6
 485 34.6666666667 481.166666667 20.8333333333 473.5 12.5 c 132
 465.833333333 4.16666666667 453 0 435 0 c 6
 72 0 l 6
 53.3333333333 0 40.3333333333 4.16666666667 33 12.5 c 132
 25.6666666667 20.8333333333 22 34.6666666667 22 54 c 6
 21 373 l 6
 21 388.333333333 25.8333333333 401.166666667 35.5 411.5 c 132
 45.1666666667 421.833333333 58 427 74 427 c 6
 268 427 l 6
 283.333333333 427 295.5 422.666666667 304.5 414 c 132
 313.5 405.333333333 318 393.333333333 318 378 c 6
 318 196 l 6
 318 166.666666667 303.666666667 152 275 152 c 6
 146 152 l 5
 146 129 l 6
 146 114.333333333 152 107 164 107 c 6
 343 107 l 6
 355 107 361 114.333333333 361 129 c 6
 361 415 l 5
 485 415 l 5
143 244 m 5
 186 244 l 6
 196 244 201 250.333333333 201 263 c 6
 201 315 l 6
 201 324.333333333 196 329 186 329 c 6
 161 329 l 6
 149 329 143 324.333333333 143 315 c 6
 143 244 l 5
EndSplineSet
EndChar

StartChar: si_MIi
Encoding: 334 -1 203
GlifName: si_M_I_i
Width: 518
VWidth: 1000
GlyphClass: 2
Flags: HMW
LayerCount: 2
Back
Fore
SplineSet
361 405 m 5
 361 434 l 6
 361 452.190543645 343.682574342 464 325 464 c 6
 65 464 l 6
 35.1570560595 464 22 472.771317872 22 505 c 6
 22 618 l 6
 22 654.859629233 35.4108204097 672 72 672 c 6
 435 672 l 6
 471.587569487 672 485 654.858131656 485 618 c 6
 485 552 l 6
 485 529.837830342 468.868088824 512.773617765 450 509 c 5
 471.911245267 502.152735855 485 474.274674872 485 445 c 6
 485 405 l 5
 361 405 l 5
232 539 m 5
 224.955729008 539 221 546.076822281 221 559 c 6
 221 575 l 6
 221 581.854980469 221.141925812 584.018230438 224 587 c 5
 153 587 l 6
 141.666666667 587 136 582.333333333 136 573 c 6
 136 554 l 6
 136 544 141.333333333 539 152 539 c 6
 232 539 l 5
323 594 m 6
 318.25085157 594 313 588.458809354 313 584 c 6
 313 553 l 6
 313 546.333333333 316.333333333 543 323 543 c 6
 368 543 l 6
 377.177019338 543 388 551.771242753 388 561 c 6
 388 584 l 6
 388 588.429265456 381.684582201 594 377 594 c 6
 323 594 l 6
485 415 m 5
 485 54 l 6
 485 34.6666666667 481.166666667 20.8333333333 473.5 12.5 c 132
 465.833333333 4.16666666667 453 0 435 0 c 6
 72 0 l 6
 53.3333333333 0 40.3333333333 4.16666666667 33 12.5 c 132
 25.6666666667 20.8333333333 22 34.6666666667 22 54 c 6
 21 373 l 6
 21 388.333333333 25.8333333333 401.166666667 35.5 411.5 c 132
 45.1666666667 421.833333333 58 427 74 427 c 6
 268 427 l 6
 283.333333333 427 295.5 422.666666667 304.5 414 c 132
 313.5 405.333333333 318 393.333333333 318 378 c 6
 318 196 l 6
 318 166.666666667 303.666666667 152 275 152 c 6
 146 152 l 5
 146 129 l 6
 146 114.333333333 152 107 164 107 c 6
 343 107 l 6
 355 107 361 114.333333333 361 129 c 6
 361 415 l 5
 485 415 l 5
143 244 m 5
 186 244 l 6
 196 244 201 250.333333333 201 263 c 6
 201 315 l 6
 201 324.333333333 196 329 186 329 c 6
 161 329 l 6
 149 329 143 324.333333333 143 315 c 6
 143 244 l 5
EndSplineSet
EndChar

StartChar: si_MatraU.alt
Encoding: 86 -1 211
GlifName: si_M_atraU_.alt
Width: 2
VWidth: 1000
GlyphClass: 2
Flags: HMW
LayerCount: 2
Back
Fore
SplineSet
-13.0126953125 -53.1923828125 m 5
 -13.0126953125 -159.012695312 l 5
 -165.416015625 -159.012695312 l 6
 -186.749023438 -159.012695312 -197.416015625 -149.012695312 -197.416015625 -129.012695312 c 6
 -197.416015625 107 l 5
 -78.0078125 107 l 5
 -78.0078125 -34.1923828125 l 6
 -78.0078125 -47.826171875 -76.458984375 -53.1923828125 -62.0078125 -53.1923828125 c 6
 -13.0126953125 -53.1923828125 l 5
EndSplineSet
EndChar

StartChar: si_MatraUu.alt
Encoding: 87 -1 212
GlifName: si_M_atraU_u.alt
Width: 2
VWidth: 1000
GlyphClass: 2
Flags: HMW
LayerCount: 2
Back
Fore
SplineSet
-1 -109 m 5
 -1 -173 l 5
 -193 -173 l 6
 -215 -173 -226 -164 -226 -146 c 6
 -226 -124 l 6
 -226 -116 -221 -109.333333333 -211 -104 c 6
 -137 -71.0078125 l 5
 -226 -71.0078125 l 5
 -226 -36.0078125 l 5
 -155 8 l 5
 -29.400390625 8 l 5
 -106 -32.0078125 l 5
 -22 -32.0078125 l 5
 -22 -65.0078125 l 5
 -125 -109 l 5
 -1 -109 l 5
EndSplineSet
EndChar

StartChar: si_PU
Encoding: 302 -1 303
GlifName: si_P_U_
Width: 509
VWidth: 0
GlyphClass: 2
Flags: HMW
LayerCount: 2
Back
Fore
SplineSet
485 -159 m 5
 24 -159 l 5
 24 -53 l 5
 362 -53 l 5
 362 25 l 5
 434 25 l 6
 462.666992188 25 479.666992188 38 485 64 c 5
 485 -159 l 5
EndSplineSet
Refer: 462 3508 N 1 0 0 1 0 0 2
EndChar

StartChar: si_Rakar
Encoding: 89 -1 319
GlifName: si_R_akar
Width: 2
VWidth: 0
GlyphClass: 2
Flags: HMW
LayerCount: 2
Back
Fore
SplineSet
-591.009765625 -15.8076171875 m 5
 -591.009765625 -100.610351562 l 6
 -591.009765625 -130.604492188 -574.09375 -144.807617188 -547.009765625 -144.807617188 c 6
 -109 -144.807617188 l 6
 -83.6669921875 -144.807617188 -68 -133.373046875 -68 -101.807617188 c 6
 -68 -15.8076171875 l 5
 -192.004882812 -15.8076171875 l 5
 -192.004882812 -32.8076171875 l 6
 -192.004882812 -45.685546875 -192.720703125 -50.80859375 -205.600585938 -50.80859375 c 6
 -454.009765625 -50.80859375 l 6
 -465.342773438 -50.80859375 -467.004882812 -44.80859375 -467.004882812 -32.80859375 c 6
 -467.004882812 -15.8076171875 l 5
 -591.009765625 -15.8076171875 l 5
EndSplineSet
EndChar

StartChar: si_SI
Encoding: 399 -1 322
GlifName: si_S_I_
Width: 576
VWidth: 0
GlyphClass: 2
Flags: HMW
LayerCount: 2
Back
Fore
SplineSet
532 598.5 m 6
 532 636 518.286521352 652.5 482 652.5 c 6
 73.0009765625 652.5 l 6
 34.3779296875 652.5 23.9833984375 636.831054688 23.0009765625 598.5 c 6
 23.0009765625 523.5 l 29
 147.500976562 523.5 l 5
 147.500976562 528.416015625 147.522460938 538 147.522460938 538 c 6
 147.538620956 548.90654318 157.522460938 554 165.500976562 554 c 6
 390 554 l 6
 397.376564365 554 407.889648438 549.669921875 408.028320312 538 c 6
 408.028320312 538 408 529.150991195 408 523.5 c 5
 532 523.5 l 29
 532 598.5 l 6
EndSplineSet
Refer: 474 3523 N 1 0 0 1 0 0 2
EndChar

StartChar: si_SRI
Encoding: 405 -1 324
GlifName: si_S_R_I_
Width: 677
VWidth: 0
GlyphClass: 2
Flags: HMW
LayerCount: 2
Back
Fore
SplineSet
74.25 -44 m 257
 103.75 -44 l 257
 141.226 -86.958 217.417 -114.25 322.75 -114.25 c 256
 465.75 -114.25 583 -31.0107 583 63.25 c 256
 583 78.2842 581.438 90.4463 576 102 c 257
 589 133 l 257
 607 106.333 616 74.667 616 38 c 256
 616 -123.729 481.5 -219 337.5 -219 c 256
 198.368 -219 111.583 -153.333 74.25 -44 c 257
EndSplineSet
Refer: 322 -1 N 1 0 0 1 0 0 2
EndChar

StartChar: si_SU
Encoding: 401 -1 327
GlifName: si_S_U_
Width: 576
VWidth: 0
GlyphClass: 2
Flags: HMW
LayerCount: 2
Back
Fore
SplineSet
534 -159 m 5
 24.716796875 -159 l 5
 24.716796875 -53 l 5
 411 -53 l 5
 411 25 l 5
 483 25 l 6
 511.666992188 25 528.666992188 38 534 64 c 5
 534 -159 l 5
EndSplineSet
Refer: 474 3523 N 1 0 0 1 0 0 2
EndChar

StartChar: si_ThI
Encoding: 249 -1 369
GlifName: si_T_hI_
Width: 515
VWidth: 0
GlyphClass: 2
Flags: HMW
LayerCount: 2
Back
Fore
SplineSet
189.998046875 448 m 5
 80 448 l 6
 49 448 34 463 34 493 c 6
 34 684 l 6
 34 714.666992188 52.338693083 736 90 736 c 6
 484.80078125 736 l 5
 484.80078125 660 l 5
 131 660 l 6
 115.442239965 660 106 656.559094926 106 640 c 6
 106 516 l 6
 106 500.211914062 112.099199978 498 124 498 c 6
 190 498 l 5
 189.998046875 448 l 5
EndSplineSet
Refer: 457 3502 N 1 0 0 1 0 0 2
EndChar

StartChar: si_ThIi
Encoding: 250 -1 370
GlifName: si_T_hI_i
Width: 515
VWidth: 1000
GlyphClass: 2
Flags: HMW
LayerCount: 2
Back
Fore
SplineSet
338 691 m 6
 328 691 323 687 323 679 c 6
 323 658 l 6
 323 649.333333333 328.333333333 645 339 645 c 6
 380 645 l 6
 390.666666667 645 396 649.666666667 396 659 c 6
 396 679 l 6
 396 687 390.333333333 691 379 691 c 6
 338 691 l 6
258 621.998046875 m 6
 234.724609375 621.998046875 230 631.254882812 230 643 c 6
 230 652 l 6
 230 656.531445085 230.817382812 659.008789062 232.399414062 660 c 13
 131 660 l 6
 115 660 106 656.559094926 106 640 c 2
 106 516 l 2
 106 500.211914062 112.099199978 498 124 498 c 2
 190 498 l 1
 189.998046875 448 l 1
 80 448 l 2
 49 448 34 463 34 493 c 2
 34 684 l 2
 34 714.666992188 52 736 90 736 c 6
 452.799804688 736.000976562 l 6
 475.799804688 736.000976562 488 726.333984375 488 707.000976562 c 6
 488 652 l 6
 488 632 477.998315121 622.000195296 458 622 c 6
 258 621.998046875 l 6
EndSplineSet
Refer: 457 3502 N 1 0 0 1 0 0 2
EndChar

StartChar: si_V.halant
Encoding: 371 -1 395
GlifName: si_V_.halant
Width: 518
VWidth: 1000
GlyphClass: 2
Flags: HMW
LayerCount: 2
Back
Fore
SplineSet
485 415 m 5
 485 54 l 6
 485 16.2702793287 472.075077523 0 435 0 c 6
 72 0 l 6
 34.9276648127 0 22 16.2730356715 22 54 c 6
 22 238 l 6
 22 274.666666667 40.6666666667 293 78 293 c 6
 144 293 l 5
 144 318 l 6
 144 327.333333333 138.666666667 332 128 332 c 6
 23 332 l 5
 23 435 l 5
 168 435 l 6
 205.315733701 435 240 417.41015625 240 381 c 6
 240 199 l 5
 167 199 l 6
 153 199 146 192.666666667 146 180 c 6
 146 129 l 6
 146 114.333333333 152 107 164 107 c 6
 343 107 l 6
 355 107 361 114.333333333 361 129 c 6
 361 415 l 5
 485 415 l 5
485 400 m 5
 361 400 l 5
 361 441 l 6
 361 459.349108321 354.06133753 464 335 464 c 6
 14 464 l 5
 14 550 l 5
 94 550 l 5
 64.6666666667 557.333333333 50 571.666666666 50 593 c 6
 50 632 l 6
 50 659.333333333 66.3333333333 673 99 673 c 6
 483 673 l 5
 483 589 l 5
 206 589 l 6
 188 589 179 584.333333333 179 575 c 4
 179 565.22644019 186.925753818 558 197 558 c 6
 416 558 l 6
 471.441005528 558 485 533.686193211 485 477 c 6
 485 400 l 5
EndSplineSet
EndChar

StartChar: si_VI
Encoding: 372 -1 396
GlifName: si_V_I_
Width: 518
VWidth: 1000
GlyphClass: 2
Flags: HMW
LayerCount: 2
Back
Fore
SplineSet
485 415 m 5
 485 54 l 6
 485 16.2702793286 472.075077523 0 435 0 c 6
 72 0 l 6
 34.9276648127 0 22 16.2730356716 22 54 c 6
 22 238 l 6
 22 274.666666667 40.6666666667 293 78 293 c 6
 144 293 l 5
 144 318 l 6
 144 327.333333333 138.666666667 332 128 332 c 6
 23 332 l 5
 23 435 l 5
 168 435 l 6
 205.3157337 435 239 417.409863712 239 381 c 6
 240 199 l 5
 167 199 l 6
 153 199 146 192.666666667 146 180 c 6
 146 129 l 6
 146 114.333333333 152 107 164 107 c 6
 343 107 l 6
 355 107 361 114.333333333 361 129 c 6
 361 415 l 5
 485 415 l 5
485 400 m 5
 361 400 l 5
 361 441 l 6
 361 459.349108322 354.06133753 464 335 464 c 6
 69 464 l 6
 37.6666666667 464 22 480 22 512 c 6
 22 612 l 6
 22 656.156313995 37.8431358697 672 82 672 c 6
 483.5 672 l 5
 483.5 589 l 5
 165 589 l 6
 152.333007812 589 146 585.666666667 146 577 c 6
 146 568 l 6
 146 561.333333333 151.666666667 558 163 558 c 6
 416 558 l 6
 472.81416846 558 485 535.085000089 485 477 c 6
 485 400 l 5
EndSplineSet
EndChar

StartChar: si_VIi
Encoding: 373 -1 397
GlifName: si_V_I_i
Width: 518
VWidth: 1000
GlyphClass: 2
Flags: HMW
LayerCount: 2
Back
Fore
SplineSet
361 405 m 5
 361 434 l 6
 361 452.190543645 343.682574342 464 325 464 c 6
 65 464 l 6
 35.1570560595 464 22 472.771317872 22 505 c 6
 22 618 l 6
 22 654.859629233 35.4108204097 672 72 672 c 6
 435 672 l 6
 471.587569487 672 485 654.858131656 485 618 c 6
 485 552 l 6
 485 529.837830342 468.868088824 512.773617765 450 509 c 5
 471.911245267 502.152735855 485 474.274674872 485 445 c 6
 485 405 l 5
 361 405 l 5
232 539 m 5
 224.955729008 539 221 546.076822281 221 559 c 6
 221 575 l 6
 221 581.854980469 221.141925812 584.018230438 224 587 c 5
 153 587 l 6
 141.666666667 587 136 582.333333333 136 573 c 6
 136 554 l 6
 136 544 141.333333333 539 152 539 c 6
 232 539 l 5
323 594 m 6
 318.25085157 594 313 588.458809354 313 584 c 6
 313 553 l 6
 313 546.333333333 316.333333333 543 323 543 c 6
 368 543 l 6
 377.177019338 543 388 551.771242753 388 561 c 6
 388 584 l 6
 388 588.429265456 381.684582201 594 377 594 c 6
 323 594 l 6
485 415 m 5
 485 54 l 6
 485 16.2702793286 472.075077523 0 435 0 c 6
 72 0 l 6
 34.9276648127 0 22 16.2730356716 22 54 c 6
 22 238 l 6
 22 274.666666667 40.6666666667 293 78 293 c 6
 144 293 l 5
 144 318 l 6
 144 327.333333333 138.666666667 332 128 332 c 6
 23 332 l 5
 23 435 l 5
 168 435 l 6
 205.3157337 435 239 417.409863712 239 381 c 6
 240 199 l 5
 167 199 l 6
 153 199 146 192.666666667 146 180 c 6
 146 129 l 6
 146 114.333333333 152 107 164 107 c 6
 343 107 l 6
 355 107 361 114.333333333 361 129 c 6
 361 415 l 5
 485 415 l 5
EndSplineSet
EndChar

StartChar: anusvara
Encoding: 2 3458 418
GlifName: anusvara
Width: 364
VWidth: 0
GlyphClass: 2
Flags: MW
LayerCount: 2
Back
Fore
SplineSet
82.373 192 m 256
 82.373 143.883 122.939 104.892 173 104.892 c 256
 223.061 104.892 263.627 143.883 263.627 192 c 256
 263.627 240.117 223.061 279.108 173 279.108 c 256
 122.939 279.108 82.373 240.117 82.373 192 c 256
28.4629 165 m 256
 28.4629 242.883 93.5605 306.704 173 306.704 c 256
 252.439 306.704 317.537 242.883 317.537 165 c 256
 317.537 87.1172 252.439 23.2959 173 23.2959 c 256
 93.5605 23.2959 28.4629 87.1172 28.4629 165 c 256
EndSplineSet
EndChar

StartChar: visarga
Encoding: 3 3459 419
GlifName: visarga
Width: 248
VWidth: 0
GlyphClass: 2
Flags: MW
LayerCount: 2
Back
Fore
SplineSet
63.1865 111 m 256
 63.1865 82.2148 86.2148 59.1865 115 59.1865 c 256
 143.785 59.1865 166.813 82.2148 166.813 111 c 256
 166.813 139.785 143.785 162.813 115 162.813 c 256
 86.2148 162.813 63.1865 139.785 63.1865 111 c 256
31 110 m 256
 31 156 69 194 115 194 c 256
 161 194 199 156 199 110 c 256
 199 64 161 26 115 26 c 256
 69 26 31 64 31 110 c 256
63.1865 313 m 256
 63.1865 284.215 86.2148 261.187 115 261.187 c 256
 143.785 261.187 166.813 284.215 166.813 313 c 256
 166.813 341.785 143.785 364.813 115 364.813 c 256
 86.2148 364.813 63.1865 341.785 63.1865 313 c 256
31 312 m 256
 31 358 69 396 115 396 c 256
 161 396 199 358 199 312 c 256
 199 266 161 228 115 228 c 256
 69 228 31 266 31 312 c 256
EndSplineSet
EndChar

StartChar: si_A
Encoding: 4 3461 420
GlifName: si_A_
Width: 542
VWidth: 1000
GlyphClass: 2
Flags: HMW
LayerCount: 2
Back
Fore
SplineSet
270.000976562 429 m 2
 270.001107931 472.315882791 299.807293289 497.000976562 332.000976562 497.000976562 c 2
 516 497.000976562 l 1
 516 419.000976562 l 1
 480 419.000976562 l 2
 468.646835157 418.773034168 467 412.333984375 467 409.000976562 c 0
 467 394.737270164 513 375.790215126 513 322 c 2
 513 224 l 2
 513 190.379599008 496.152145327 171.000976562 463 171.000976562 c 2
 394 171.000976562 l 1
 394 107.000976562 l 1
 511 107.000976562 l 1
 511 0.0009765625 l 1
 394 0.0009765625 l 1
 394 -139.999023438 l 1
 270 -139.999023438 l 1
 270 0.0009765625 l 1
 69.9990234375 0 l 2
 33 -0 21.9990234375 14.0517578125 21.9990234375 51 c 2
 21.9990234375 299 l 2
 21.9990234375 336.333007812 40.33203125 355 76.9990234375 355 c 2
 150 355 l 1
 150 377 l 2
 150 392.225585938 144.532226562 394 129 394 c 2
 21.9990234375 394 l 1
 21.9990234375 497 l 1
 169 497 l 2
 212.33203125 497 241.000976562 474.112304688 241.000976562 431 c 2
 241 253 l 1
 168.999023438 253 l 2
 148.81640625 253 145.999023438 248.130859375 145.999023438 228 c 2
 145.999023438 128 l 2
 145.999023438 114 152 107 162.999023438 107 c 2
 270 107.000976562 l 1
 270.000976562 429 l 2
393 265.000976562 m 1
 410 265.000976562 l 2
 425.644991267 265.000976562 428 269.543895949 428 286.000976562 c 2
 428 329 l 2
 428 358.308897155 407.00390625 375.50390625 407.00390625 392.006835938 c 0
 407.00390625 394.672851562 407.455078125 397.952148438 409.00390625 400.006835938 c 1
 400.236328125 398.33203125 393 392.916992188 393 376.204101562 c 2
 393 265.000976562 l 1
EndSplineSet
EndChar

StartChar: si_I
Encoding: 8 3465 424
GlifName: si_I_
Width: 519
VWidth: 1000
GlyphClass: 2
Flags: HMW
LayerCount: 2
Back
Fore
SplineSet
311.197265625 346 m 5
 311.197265625 206 l 6
 311.197265625 172.077368288 291.191104025 156 258 156 c 6
 78 156 l 6
 41.2336459635 156 22 172.981432995 22 210 c 6
 22 442 l 6
 22 476.485944892 43.9765625 497 83.0009765625 497 c 6
 428 497 l 6
 471.528845679 497 489.000976562 474.965601327 489.000976562 442 c 6
 489.000976562 122.99609375 l 6
 489.000976562 83.154296875 466.443359375 66.2294921875 444 59.99609375 c 5
 460 48.6630859375 472.000976562 33.99609375 472.000976562 9.99609375 c 6
 472.000976562 -99.0048828125 l 6
 472.000976562 -141.627929688 454.967773438 -159.004882812 416 -159.004882812 c 6
 46.203125 -159.004882812 l 5
 46.203125 -50.0048828125 l 5
 324 -50.0048828125 l 6
 343.750976562 -50.0048828125 348.000976562 -49.662109375 348.000976562 -37.0048828125 c 6
 348.000976562 -12.9990234375 l 6
 348.000976562 -4.33203125 344.189439973 -7.11780486803e-05 324 0 c 6
 47.0009765625 0.0009765625 l 5
 47.0009765625 107.000976562 l 5
 332.000976562 107.000976562 l 6
 354.000976562 107.000976562 365.000976562 117.333984375 365.000976562 138.000976562 c 6
 365.000976562 374 l 6
 365.000976562 387.333007812 359.000976562 394 347.000976562 394 c 6
 168.001953125 394 l 6
 153.334960938 394 146.001953125 388 146.001953125 376 c 6
 146.001953125 276.994140625 l 6
 146.001953125 261.564453125 148.775390625 256.994140625 162 256.994140625 c 6
 182.196289062 256.994140625 l 6
 196.520507812 256.994140625 199.197265625 260.994140625 199.197265625 276.994140625 c 6
 199.197265625 346 l 5
 311.197265625 346 l 5
EndSplineSet
EndChar

StartChar: si_Ii
Encoding: 9 3466 425
GlifName: si_I_i
Width: 451
VWidth: 1000
GlyphClass: 2
Flags: HMW
LayerCount: 2
Back
Fore
SplineSet
22 48.2001953125 m 6
 22 11.8603515625 38.224609375 0 67.6015625 0 c 6
 365.799804688 0 l 6
 416.64453125 -6.22668316383e-15 421.000976562 32.0947839579 421.000976562 61 c 6
 421.000976562 438 l 6
 421.000976562 473.886824493 402.535124864 496.999719335 360 497 c 6
 212.000976562 497.000976562 l 5
 365.000976562 663.000976562 l 5
 222.000976562 663.000976562 l 5
 63.0009765625 498.000976562 l 6
 39 474 22 453.477470772 22 430 c 6
 22 48.2001953125 l 6
146.005859375 367.000976562 m 6
 146.006409594 388.97460936 148.75390625 394.000976562 171.206054688 394.000976562 c 6
 272 394 l 6
 292.79296875 394 296.80078125 391.192382812 296.80078125 372.000976562 c 6
 296.80078125 133.194335938 l 6
 296.80078125 110.469726562 295.2421875 107 272 107 c 6
 169.600585938 107 l 6
 146.288085938 107 146.002929688 112.619140625 146 129.596679688 c 6
 146 129.666015625 146.005859375 367.000976562 146.005859375 367.000976562 c 6
21.99609375 663.000976562 m 5
 123.99609375 663.000976562 l 5
 123.99609375 569.000976562 l 5
 21.99609375 569.000976562 l 5
 21.99609375 663.000976562 l 5
333.000976562 612.000976562 m 5
 435.000976562 612.000976562 l 5
 435.000976562 518.000976562 l 5
 333.000976562 518.000976562 l 5
 333.000976562 612.000976562 l 5
50.99609375 640.999023438 m 5
 50.99609375 589.999023438 l 5
 94.99609375 589.999023438 l 5
 94.99609375 640.999023438 l 5
 50.99609375 640.999023438 l 5
362.000976562 590.000976562 m 5
 362.000976562 539.000976562 l 5
 406.000976562 539.000976562 l 5
 406.000976562 590.000976562 l 5
 362.000976562 590.000976562 l 5
EndSplineSet
EndChar

StartChar: si_U
Encoding: 10 3467 426
GlifName: si_U_
Width: 521
VWidth: 1000
GlyphClass: 2
Flags: HMW
LayerCount: 2
Back
Fore
SplineSet
93.0009765625 497 m 1
 426 497 l 2
 466.666015625 497 491.000976562 478.366306694 491.000976562 438 c 2
 491.000976562 253 l 1
 176.995117188 253 l 2
 149.411132812 253 146 249.808959326 146 222 c 2
 146 -20 l 2
 146 -38.6669921875 149.333007812 -43 168 -43 c 2
 351 -43 l 2
 367.666015625 -43 369.995117188 -36.3330078125 369.995117188 -23 c 2
 369.995117188 97.986328125 l 1
 494.000976562 97.986328125 l 1
 494.000976562 -92 l 2
 494.000976562 -138.03965444 474.333984375 -153 435.000976562 -153 c 2
 76 -153 l 2
 34.089320409 -153 22.0009765625 -122.86328125 22.0009765625 -86 c 2
 22.0009765625 282.995117188 l 2
 22.0009765625 330.995117188 46.6679687664 354.994228314 96.0009765625 354.995117188 c 2
 367 355 l 1
 367.000976562 378.598632812 l 10
 367 387.598632812 364.471679688 393.999023438 351.8046875 393.999023438 c 2
 93.0009765625 393.999023438 l 1
 93.0009765625 497 l 1
EndSplineSet
EndChar

StartChar: si_vocalicR
Encoding: 12 3469 428
GlifName: si_vocalicR_
Width: 909
VWidth: 1000
GlyphClass: 2
Flags: HMW
LayerCount: 2
Back
Fore
SplineSet
278 46 m 5
 278 19.880859375 251.568359375 0 225 0 c 6
 72 0 l 6
 34.9248046875 0 22 16.2705078125 22 54 c 6
 22 296 l 6
 22 339.260742188 42.4716796875 356 86 356 c 6
 168 356 l 5
 168 379 l 6
 168 389 161 394 147 394 c 6
 23 394 l 5
 23 497 l 5
 192 497 l 6
 230.704101562 497 264.000976562 480.775390625 264.000976562 443 c 6
 264 253 l 5
 169 253 l 6
 153.666992188 253 146 247.333007812 146 236 c 6
 146 130 l 6
 146 114.666992188 152 107 164 107 c 6
 195 107 l 6
 213 107 222 115.666992188 222 133 c 6
 222 190 l 5
 259.333333333 190 296.666666667 190 334 190 c 5
 334 133 l 6
 334 115.666666667 343 107 361 107 c 6
 392 107 l 6
 404 107 410 114.666666667 410 130 c 6
 410 236 l 6
 410 247.333333333 402.333333333 253 387 253 c 6
 292 253 l 5
 291.999023438 443 l 6
 291.999023438 480.775390625 325.296192405 497 364 497 c 6
 533 497 l 5
 533 394 l 5
 409 394 l 6
 395 394 388 389 388 379 c 6
 388 356 l 5
 470 356 l 6
 513.528624049 356 534 339.260431523 534 296 c 6
 534 54 l 6
 534 16.2702793287 521.075077523 0 484 0 c 6
 331 0 l 6
 304.431247633 0 278 19.881055629 278 46 c 5
EndSplineSet
Refer: 486 3544 S 1 0 0 1 563 0 2
EndChar

StartChar: si_vocalicRr
Encoding: 13 3470 429
GlifName: si_vocalicR_r
Width: 1243
VWidth: 0
GlyphClass: 2
Flags: HMW
LayerCount: 2
Back
Fore
SplineSet
278 46 m 1
 278 19.880859375 251.568359375 0 225 0 c 2
 72 0 l 2
 34.9248046875 0 22 16.2705078125 22 54 c 2
 22 296 l 2
 22 339.260742188 42.4716796875 356 86 356 c 2
 168 356 l 1
 168 379 l 2
 168 389 161 394 147 394 c 2
 23 394 l 1
 23 497 l 1
 192 497 l 2
 230.704101562 497 264.000976562 480.775390625 264.000976562 443 c 2
 264 253 l 1
 169 253 l 2
 153.666992188 253 146 247.333007812 146 236 c 2
 146 130 l 2
 146 114.666992188 152 107 164 107 c 2
 195 107 l 2
 213 107 222 115.666992188 222 133 c 2
 222 190 l 1
 259.333333333 190 296.666666667 190 334 190 c 1
 334 133 l 2
 334 115.666666667 343 107 361 107 c 2
 392 107 l 2
 404 107 410 114.666666667 410 130 c 2
 410 236 l 2
 410 247.333333333 402.333333333 253 387 253 c 2
 292 253 l 1
 291.999023438 443 l 2
 291.999023438 480.775390625 325.296192405 497 364 497 c 2
 533 497 l 1
 533 394 l 1
 409 394 l 2
 395 394 388 389 388 379 c 2
 388 356 l 1
 470 356 l 2
 513.528624049 356 534 339.260431523 534 296 c 2
 534 54 l 2
 534 16.2702793287 521.075077523 0 484 0 c 2
 331 0 l 2
 304.431247633 0 278 19.881055629 278 46 c 1
EndSplineSet
Refer: 494 3570 N 1 0 0 1 557.6 0 2
PickledDataWithLists: "(dp1
S'com.fontlab.hintData'
p2
(dp3
S'vhints'
p4
(lp5
(dp6
S'position'
p7
I31
sS'width'
p8
I38
sa(dp9
g7
I62
sg8
I74
sa(dp10
g7
I263
sg8
I30
sa(dp11
g7
I301
sg8
I27
sa(dp12
g7
I520
sg8
I39
sa(dp13
g7
I571
sg8
I37
sa(dp14
g7
I617
sg8
I30
sa(dp15
g7
I786
sg8
I45
sa(dp16
g7
I787
sg8
I61
sa(dp17
g7
I863
sg8
I30
sa(dp18
g7
I1032
sg8
I45
sa(dp19
g7
I1033
sg8
I61
sasS'hhints'
p20
(lp21
(dp22
g7
I-1
sg8
I72
sa(dp23
g7
I-1
sg8
I29
sa(dp24
g7
I17
sg8
I26
sa(dp25
g7
I195
sg8
I27
sa(dp26
g7
I291
sg8
I25
sa(dp27
g7
I358
sg8
I35
sa(dp28
g7
I395
sg8
I36
sass."
EndChar

StartChar: si_E
Encoding: 16 3473 431
GlifName: si_E_
Width: 534
VWidth: 1000
GlyphClass: 2
Flags: HMW
LayerCount: 2
Back
Fore
SplineSet
241.216796875 576 m 1
 241.216796875 527.19921875 l 2
 241.216796875 508.791015625 248.619140625 508.614257812 263 508.614257812 c 2
 377.198242188 508.614257812 l 1
 377.198242188 511.2109375 l 2
 377.198242188 519.2109375 367.985075466 522.988086726 361 526 c 2
 361 526 294.965752963 554.586105873 252 573 c 2
 249.295535148 574.166145395 245.025839045 576 243.198242188 576 c 10
 241.216796875 576 l 1
504 494 m 2
 504 51 l 2
 504 19.9498755273 486.854492188 -3.53365614984e-15 458 0 c 2
 86 0 l 2
 56.4320251969 0 38 13.2377204694 38 44 c 2
 38 145 l 2
 38 175.59912925 51.53515625 188.864257812 64.2021484375 196.197265625 c 1
 4 196.197265625 l 1
 4 286.794921875 l 1
 184.998046875 286.794921875 l 1
 184.998046875 308 l 2
 184.998046875 314.65625 179.639648438 319 170.998046875 319 c 2
 41 319 l 1
 41 407 l 1
 249 407 l 2
 289.938652222 407 309 384.43008005 309 346 c 2
 309 189.798828125 l 1
 201 189.798828125 l 2
 174.970943972 189.798828125 162.001953125 177.919027233 162.001953125 159 c 2
 162.001953125 130 l 2
 162.001953125 113.813430316 165.731445312 107 186.3984375 107 c 2
 360.198242188 107 l 2
 372.865234375 107 379.198242188 113.666992188 379.198242188 127 c 2
 379.198242188 439.614257812 l 1
 177 439.614257812 l 2
 143.7079954 439.614257812 131.216796875 450.586291129 131.216796875 487 c 2
 131.216796875 577 l 1
 80.216796875 577 l 1
 80.216796875 664 l 1
 203 664 l 2
 234.190130849 664 245.696984439 663.543787643 288 645 c 2
 288.476409522 644.89350846 434 581 434 581 c 2
 470.406946323 565.040790653 504 545.566938633 504 494 c 2
EndSplineSet
EndChar

StartChar: si_Ee
Encoding: 17 3474 432
GlifName: si_E_e
Width: 534
VWidth: 1000
GlyphClass: 2
Flags: HMW
LayerCount: 2
Back
Fore
SplineSet
388 708 m 5
 504 708 l 5
 504 480 l 5
 388.000976562 480 l 5
 388 708 l 5
EndSplineSet
Refer: 431 3473 N 1 0 0 1 0 0 2
EndChar

StartChar: si_Os
Encoding: 19 3476 434
GlifName: si_O_s
Width: 515
VWidth: 1000
GlyphClass: 2
Flags: HMW
LayerCount: 2
Back
Fore
SplineSet
292.997070312 247 m 6
 209.404296875 247 l 6
 187.842773438 247 174.405273438 255.306640625 174.405273438 277 c 6
 174.405273438 347 l 6
 174.405273438 352.033203125 171.706054688 356.000976562 165.404296875 356.000976562 c 6
 156 356.000976562 l 6
 149.04296875 356.000976562 146.00390625 352.29296875 146.00390625 346.200195312 c 6
 146.00390625 126 l 6
 146.00390625 113.333007817 152.336914062 107 165.00390625 107 c 6
 181.802734375 107 l 6
 196.46875 107 203.802734375 115.333007812 203.802734375 132 c 6
 203.802734375 197.794921875 l 5
 303.3984375 197.794921875 l 5
 303.3984375 134 l 6
 303.3984375 116 311.064453125 107 326.3984375 107 c 6
 343.997070312 107 l 6
 355.330078125 107 360.997070312 114 360.997070312 128 c 6
 360.997070312 479 l 6
 360.997070312 503.8515625 353.883832287 510 330 510 c 6
 22.0009765625 510 l 5
 22.0009765625 626 l 5
 412 626 l 6
 454.30859375 626 484.998046875 609.263671875 484.998046875 560 c 6
 484.998046875 50 l 6
 484.998046875 19.6378740064 471.396408352 -4.08988045911e-15 438 0 c 6
 301.802734375 0 l 6
 275.802734375 0 259.46875 12.3330078125 252.802734375 37 c 5
 249.62890625 16.3779296875 229.072265625 0 205.802734375 0 c 6
 69 0 l 6
 37.6095578425 0 22 15.0175781253 22 48 c 6
 22 394 l 6
 22 432.5546875 40.0200264343 459 81 459 c 6
 195 459 l 6
 220.992320046 459 236.000976562 449.978400034 236.000976562 424 c 6
 236.000976562 359 l 6
 236.000976562 351 237.223999987 347 245.202148438 347 c 6
 253.799804688 347 l 6
 260.984375 347 263.000976562 350.666992188 263.000976562 358 c 6
 263.000976562 459 l 5
 331.997070312 459 l 5
 331.997070312 282 l 6
 331.997070312 258.666992188 318.997070312 247 292.997070312 247 c 6
EndSplineSet
EndChar

StartChar: si_Oo
Encoding: 20 3477 435
GlifName: si_O_o
Width: 515
VWidth: 1000
GlyphClass: 2
Flags: HMW
LayerCount: 2
Back
Fore
SplineSet
485 400 m 1
 361 400 l 1
 361 441 l 2
 361 459.349108322 354.06133753 464 335 464 c 2
 14 464 l 1
 14 550 l 1
 94 550 l 1
 64.6666666667 557.333333333 50 571.666666666 50 593 c 2
 50 632 l 2
 50 659.333333333 66.3333333333 673 99 673 c 2
 483 673 l 1
 483 589 l 1
 206 589 l 2
 188 589 179 584.333333333 179 575 c 0
 179 565.226440189 186.925753819 558 197 558 c 2
 416 558 l 2
 471.441005527 558 485 533.686193211 485 477 c 2
 485 400 l 1
360.997070312 416 m 25
 360.997070312 416 485.000976563 416.000009447 485.000976562 416 c 9
 484.998046875 50.80078125 l 2
 484.997777002 17.1598561923 471.396408352 -4.08988045911e-15 438 0 c 2
 301.802734375 0 l 2
 275.802734375 0 259.46875 12.3330078125 252.802734375 37 c 1
 249.62890625 16.3779296875 229.072265625 0 205.802734375 0 c 2
 69 0 l 2
 37.6095578425 0 22 15.0175781253 22 48 c 2
 22 361 l 2
 22 399.5546875 40.0205078125 426 81 426 c 2
 195 426 l 2
 220.9921875 426 236.000976562 416.978515625 236.000976562 391 c 2
 236.000976562 326 l 2
 236.000976562 318 237.223632812 314 245.202148438 314 c 2
 253.799804688 314 l 2
 260.984375 314 263.000976562 317.666992188 263.000976562 325 c 2
 263.000976562 426 l 1
 331.997070312 426 l 1
 331.997070312 262 l 2
 331.997070312 238.666992188 318.997070312 227 292.997070312 227 c 2
 209.404296875 227 l 2
 187.842773438 227 174.405273438 235.306640625 174.405273438 257 c 2
 174.405273438 314 l 2
 174.405273438 319.033203125 171.706054688 323.000976562 165.404296875 323.000976562 c 2
 156 323.000976562 l 2
 149.04296875 323.000976562 146.00390625 319.29296875 146.00390625 313.200195312 c 2
 146.00390625 126 l 2
 146.00390625 113.333007817 152.336914062 107 165.00390625 107 c 2
 181.802734375 107 l 2
 196.46875 107 203.802734375 115.333007812 203.802734375 132 c 2
 203.802734375 181.403320312 l 1
 303.3984375 181.403320312 l 1
 303.3984375 134 l 2
 303.3984375 116 311.064453125 107 326.3984375 107 c 2
 343.997070312 107 l 2
 355.330078125 107 360.997070312 114 360.997070312 128 c 2
 360.997070312 416 l 25
EndSplineSet
EndChar

StartChar: si_Ka
Encoding: 22 3482 437
GlifName: si_K_a
Width: 592
VWidth: 1000
GlyphClass: 2
Flags: HMW
LayerCount: 2
Back
Fore
SplineSet
275.400390625 242.799804688 m 2
 275.400390625 129.6015625 l 2
 275.400390625 111.602539062 272.60546875 106.799804688 262.400390625 106.799804688 c 2
 251.397460938 106.799804688 l 2
 240.106445312 106.799804688 237.397460938 111.1328125 237.397460938 125.799804688 c 2
 237.397460938 187.799804688 l 1
 169.397460938 187.799804688 l 1
 169.397460938 123.80078125 l 2
 169.397460938 112.466796875 167.482421875 106.799804688 154.397460938 106.799804688 c 2
 145.99609375 106.799804688 l 2
 134.65625 106.799804688 131.99609375 109.465820312 131.99609375 126.799804688 c 2
 131.99609375 180.602539062 l 2
 131.99609375 204.75390625 138.510742188 218.0234375 143.99609375 221.799804688 c 9
 143.79296875 235.799804688 l 1
 115.399414062 235.799804688 l 1
 145 261.799804688 l 1
 260.400390625 261.799804688 l 2
 270.400390625 261.799804688 275.400390625 255.46484375 275.400390625 242.799804688 c 2
221.004882812 459.197265625 m 5
 221.004882812 461.397460938 l 6
 221.004882812 469.58984375 217.091796875 496.76171875 185.409179688 496.799804688 c 2
 22 497 l 1
 22 394 l 1
 107.01171875 393.80078125 l 2
 119.918787767 393.770534477 130.608398438 391.02734375 130.608398438 381.797851562 c 2
 130.608398438 380.200195312 l 1
 87.408203125 341.799804688 11.9970703125 276.196289062 11.9970703125 276.196289062 c 1
 11.9970703125 202.80078125 l 1
 48 202.80078125 l 1
 34.2731999959 195.064799972 22 180.795115495 22 140 c 2
 22 49.80078125 l 2
 22 19.6163999738 34.1328125 -0.2001953125 65.99609375 -0.2001953125 c 2
 165.397460938 -0.2001953125 l 2
 183.08984375 -0.2001953125 199.73046875 9.466796875 204.397460938 28.80078125 c 1
 209.064453125 9.466796875 222.4375 -0.2001953125 241.397460938 -0.2001953125 c 2
 331.400390625 -0.2001953125 l 2
 361.044921875 -0.2001953125 384.400390625 14.75390625 384.400390625 50.7998046875 c 2
 384.400390625 297.799804688 l 2
 384.400390625 337.495117188 363.212890625 354.799804688 331.400390625 354.799804688 c 2
 251.407226562 354.799804688 l 1
 281.208007812 380.799804688 l 2
 293.372070312 391.341796875 298.741210938 393.799804688 313.408203125 393.799804688 c 2
 416.599609375 394.000976562 l 2
 429.932617187 394.001102253 437 388.000976562 437 376.000976562 c 2
 437 124.000976562 l 2
 437 112.666992188 432.333007764 107.001410574 423 107.000976562 c 2
 401.599609375 107 l 1
 401.599609375 0 l 1
 507.599609375 0 l 2
 537.075195312 -3.60971819714e-15 561.608398438 13.2042459796 561.608398438 49 c 2
 561.608398438 444 l 2
 561.608398438 475.842977464 539.826949155 497 503 497 c 2
 303.408203125 496.799804688 l 2
 279.212890625 496.799804688 262.182617188 494.689453125 240.0078125 475.799804688 c 2
 221.004882812 459.197265625 l 5
EndSplineSet
EndChar

StartChar: si_Kha
Encoding: 23 3483 438
GlifName: si_K_ha
Width: 516
VWidth: 1000
GlyphClass: 2
Flags: HMW
LayerCount: 2
Back
Fore
SplineSet
22 395 m 2
 22 430.965483953 40.6509407322 458.974609375 81 458.974609375 c 2
 256 458.974609375 l 2
 288.526455836 458.974609375 312 441.668357484 312 404 c 2
 312 212 l 1
 305 144 l 1
 317 125.333007812 328.218799973 107 340 107 c 2
 346 107 l 2
 358.666992188 107 360.994140625 114 360.994140625 128 c 2
 360.994140625 478.993164062 l 2
 360.994140625 499.66015625 346.661132812 509.993164062 317.994140625 509.993164062 c 2
 21.998046875 509.993164062 l 1
 21.998046875 626 l 1
 414.995117188 626 l 2
 454.280889696 626 484.995117188 606.24208819 484.995117188 566 c 2
 484.995117188 51 l 2
 484.995117188 26.0733951602 473.261288987 -4.19579778928e-15 439 0 c 2
 350 0 l 2
 316.666666667 0 294.666992188 20 288 44 c 1
 270.400390625 -5 l 1
 178.400390625 -5 l 1
 199 203 l 1
 199.000976562 330.974609375 l 2
 198.912109375 342.307617188 195 347.974609375 181 347.974609375 c 2
 166.009765625 347.974609375 l 2
 148.009765625 347.974609375 146.010489113 340.641601526 146.009765625 325.974609375 c 2
 146 128 l 2
 146 109.333007812 149.666015625 107 159 107 c 2
 168.006835938 107 l 1
 157.997070312 0 l 1
 65 0 l 2
 38.3046995551 0 22 16.7638919425 22 48 c 2
 22 395 l 2
EndSplineSet
EndChar

StartChar: si_Ga
Encoding: 24 3484 439
GlifName: si_G_a
Width: 592
VWidth: 1000
GlyphClass: 2
Flags: HMW
LayerCount: 2
Back
Fore
SplineSet
196.78125 496.999023438 m 5
 196.78125 394 l 5
 169 393.998046875 l 6
 148.817382866 393.997208169 146 389.12890625 146 368.998046875 c 6
 146 128 l 6
 146 114 151.666666667 107 163 107 c 6
 214.185546875 107 l 6
 233.89453125 107 234.185546875 111.540039062 234.185546875 132 c 6
 234.185546875 196 l 6
 234.185546875 209.333007812 229.185546875 216 219.185546875 216 c 6
 205.185546875 216 l 5
 243.185546875 446 l 6
 249.185546875 480 273.185546875 497 315.185546875 497 c 6
 495 497 l 6
 541.223632812 497 562 479.952148438 562 434 c 6
 562 64 l 6
 562 15.2900390625 548.133789062 0 499 0 c 6
 402 0 l 5
 402 107 l 5
 416 107 l 6
 436.639648438 107 438 112.033203125 438 133 c 6
 438 372 l 6
 438 384 432 390 420 390 c 6
 369.185546875 390 l 6
 355.852539062 390 347.852539062 384.333007812 345.185546875 373 c 6
 330.185546875 288 l 5
 332.935546875 287.927734375 l 6
 347.768554688 287.538085938 355.185546875 276.895507812 355.185546875 256 c 6
 355.185546875 60 l 6
 355.185546875 12.607421875 335.78515625 0 288.185546875 0 c 6
 70 0 l 6
 33.361328125 0 22 14.0517578125 22 51 c 6
 22 440.999023438 l 6
 22 478.33203125 40.3330078446 496.999023438 77 496.999023438 c 6
 196.78125 496.999023438 l 5
EndSplineSet
EndChar

StartChar: si_Gha
Encoding: 25 3485 440
GlifName: si_G_ha
Width: 564
VWidth: 1000
GlyphClass: 2
Flags: HMW
LayerCount: 2
Back
Fore
SplineSet
330.950195312 0 m 2
 302.200195312 0 278.950195312 20.8427734375 278.950195312 47 c 2
 278.950195312 131.19921875 l 2
 278.950195312 139.4921875 286.7890625 143.435546875 294.083007812 148 c 0
 300.326171875 151.90625 306.169921875 156.268554688 306.357421875 164.201171875 c 2
 306.350585938 172 l 2
 306.344726562 180.379882812 301.937920008 181.99609375 294.754882812 181.99609375 c 2
 277.950195312 181.99609375 l 1
 261.1953125 181.99609375 l 2
 255.409599994 181.99609375 249.605835769 180.379836808 249.599609375 172 c 2
 249.592773438 164.201171875 l 2
 249.780578765 156.268310874 255.624356109 151.906734196 261.867302975 148 c 0
 269.161212741 143.435590384 277 139.492053399 277 131.19921875 c 2
 277 47 l 2
 277 20.8429101869 253.413622876 -3.4796652307e-15 225 0 c 2
 72 0 l 2
 34.9276648127 0 22 16.2730356715 22 54 c 2
 22 218 l 2
 22 239.333333333 29.6666666667 253.666666666 45 261 c 1
 61.2197741946 283.302189517 40.8581471954 355.999999999 78 356 c 2
 168.049804688 356 l 1
 168.041637005 356.227465553 168 379 168 379 c 10
 168 389 161.333333333 394 148 394 c 2
 23 394 l 1
 23 497 l 1
 192 497 l 2
 230.669306512 497 264 480.76604935 264 443 c 2
 264 253 l 1
 169 253 l 2
 153.666666667 253 146 247.333333333 146 236 c 2
 146 130 l 2
 146 114.666666667 152 107 164 107 c 2
 196.80078125 107 l 2
 205.056640625 107 214.750976562 108.852539062 214.778320312 118.203125 c 2
 214.80078125 121.729492188 l 2
 214.80078125 130.157788423 207.908853554 133.603548457 200.348844688 137 c 0
 191.165820362 141.125616476 180.997070312 145.178480342 180.997070312 158 c 2
 180.997070312 198.99609375 l 2
 180.997070312 214.99609375 190.409599994 222.99609375 207.004882812 222.99609375 c 2
 277.950195312 222.99609375 l 1
 348.9453125 222.99609375 l 2
 364.671948793 222.99609375 374.953125 214.99609375 374.953125 198.99609375 c 2
 374.953125 158 l 2
 374.953125 145.178710938 364.784179688 141.125976562 355.6015625 137 c 0
 348.041015625 133.603515625 341.149414062 130.158203125 341.149414062 121.729492188 c 2
 341.171875 118.203125 l 2
 341.19921875 108.852539062 351.200195312 107 359.149414062 107 c 2
 392 107 l 2
 404 107 410 114.666666667 410 130 c 2
 410 236 l 2
 410 247.333333333 402.333333333 253 387 253 c 2
 292 253 l 1
 291.999023438 443 l 2
 291.999023438 480.775390625 325.296192405 497 364 497 c 2
 533 497 l 1
 533 394 l 1
 409 394 l 2
 395 394 388 389 388 379 c 2
 388 356 l 1
 470 356 l 2
 513.528624049 356 534 339.260431523 534 296 c 2
 534 54 l 2
 534 16.2702793287 521 0 484 0 c 2
 330.950195312 0 l 2
-6 355.99609375 m 1
 88 355.99609375 l 1
 88 258.99609375 l 1
 -6 258.99609375 l 1
 -6 355.99609375 l 1
EndSplineSet
EndChar

StartChar: si_Nnga
Encoding: 27 3487 442
GlifName: si_N_nga
Width: 760
VWidth: 1000
GlyphClass: 2
Flags: HMW
LayerCount: 2
Back
Fore
SplineSet
364.782226562 496.999023438 m 1
 364.782226562 394 l 1
 337.000976562 393.998046875 l 2
 316.818359375 393.997070312 314.000976562 389.12890625 314.000976562 368.998046875 c 2
 314.000976562 128 l 2
 314.000976562 114 319.66796875 107 331.000976562 107 c 2
 382.186523438 107 l 2
 401.895507812 107 402.186523438 111.540039062 402.186523438 132 c 2
 402.186523438 196 l 2
 402.186523438 209.333007812 397.186523438 216 387.186523438 216 c 2
 373.186523438 216 l 1
 411.186523438 446 l 2
 417.186523438 480 441.186523438 497 483.186523438 497 c 2
 663.000976562 497 l 2
 709.224609375 497 730.000976562 479.952148438 730.000976562 434 c 2
 730.000976562 64 l 2
 730.000976562 15.2900390625 716.134765625 0 667.000976562 0 c 2
 570.000976562 0 l 1
 570.000976562 107 l 1
 584.000976562 107 l 2
 604.640625 107 606.000976562 112.033203125 606.000976562 133 c 2
 606.000976562 372 l 2
 606.000976562 384 600.000976562 390 588.000976562 390 c 2
 537.186523438 390 l 2
 523.853515625 390 515.853515625 384.333007812 513.186523438 373 c 2
 498.186523438 288 l 1
 500.936523438 287.927734375 l 2
 515.76953125 287.538085938 523.186523438 276.895507812 523.186523438 256 c 2
 523.186523438 60 l 2
 523.186523438 12.607421875 503.786132812 0 456.186523438 0 c 2
 238.000976562 0 l 2
 201.362304688 0 190.000976562 14.0517578125 190.000976562 51 c 2
 190.000976562 440.999023438 l 2
 190.000976562 478.33203125 208.333984375 496.999023438 245.000976562 496.999023438 c 2
 364.782226562 496.999023438 l 1
158.998046875 398.000976562 m 6
 146.59765625 398.000976562 140.000976562 392 140.000976562 374 c 6
 140.000976562 0 l 5
 22 0 l 5
 22 406 l 6
 22 459.608800016 56.2470703125 497 108.400390625 497 c 6
 255.001953125 496.999023438 l 5
 202.000976562 398 l 5
 158.998046875 398.000976562 l 6
EndSplineSet
EndChar

StartChar: si_Ca
Encoding: 28 3488 443
GlifName: si_C_a
Width: 539
VWidth: 1000
GlyphClass: 2
Flags: HMW
LayerCount: 2
Back
Fore
SplineSet
-6 318.989257812 m 1
 162 318.989257812 l 1
 162 224.989257812 l 1
 -6.001953125 224.989257812 l 1
 -6 318.989257812 l 1
508.997070312 415 m 1
 508.997070312 54 l 2
 508.997070312 16.2705078125 496.072265625 0 458.997070312 0 c 2
 95.9970703125 0 l 2
 58.9248046875 0 45.9970703125 16.2734375 45.9970703125 54 c 2
 45.9970703125 175.791992188 l 2
 45.9970703125 208.002929688 53.9267578125 221.157226562 62 229.791992188 c 2
 62 229.791992188 118.86328125 318.999023438 148 318.999023438 c 2
 167.997070312 318.999023438 l 1
 167.997070312 353 l 2
 167.997070312 362.333007812 162.6640625 367 151.997070312 367 c 2
 45.99609375 367 l 1
 45.99609375 470 l 1
 228.997070312 470 l 2
 270.702148438 470 291.99609375 448.41015625 291.99609375 412 c 2
 291.99609375 224.999023438 l 1
 205.3984375 224.999023438 l 2
 177.74609375 224.999023438 169.997070312 209.490716819 169.997070312 180 c 2
 169.997070312 129 l 2
 169.997070312 114.333007812 175.997070312 107 187.997070312 107 c 2
 366.997070312 107 l 2
 378.997070312 107 384.997070312 114.333007812 384.997070312 129 c 2
 384.997070312 415 l 1
 508.997070312 415 l 1
439.997070312 625 m 2
 494.997070312 625 508.997070312 600.686523438 508.997070312 544 c 2
 508.997070312 400 l 1
 384.997070312 400 l 1
 384.997070312 494.6015625 l 2
 384.997070312 512.950195312 378.05859375 517.6015625 358.997070312 517.6015625 c 2
 45.9970703125 517.6015625 l 1
 45.9970703125 625 l 1
 439.997070312 625 l 2
EndSplineSet
EndChar

StartChar: si_Cha
Encoding: 29 3489 444
GlifName: si_C_ha
Width: 513
VWidth: 1000
GlyphClass: 2
Flags: HMW
LayerCount: 2
Back
Fore
SplineSet
300 371 m 18
 300.200195312 322.188476562 l 2
 300.254878298 308.855697815 307.534179688 301.98828125 322.200195312 301.98828125 c 2
 344.200195312 301.98828125 l 2
 358.8671875 301.98828125 366.200195312 310.666992188 366.200195312 322 c 2
 366 372.19921875 l 2
 365.941508689 386.865986354 359.333984375 394.19921875 346 394.19921875 c 2
 320 394.19921875 l 2
 306.983487971 394.19921875 300 383.600585938 300 371 c 18
388 486 m 9
 250.999023438 486 l 1
 268.015625 496.523125004 275.290927946 495.000024117 305 533 c 2
 391 643 l 1
 524 643 l 1
 439 524 l 2
 416.757403399 492.860364759 396.586914062 489.982421875 388 486 c 9
164 107 m 2
 343 107 l 2
 355 107 361 114.375061808 361 129 c 2
 361 183.810546875 l 2
 361 201.998046875 349.411132812 207.810546875 332 207.810546875 c 2
 255.598632812 207.810546875 l 2
 229.37109375 207.810546875 217 227.493164062 217 254.810546875 c 2
 216.999023438 419 l 10
 217 460 247.331054688 497 286 497 c 2
 430 497 l 2
 465.206054688 497 484.998485989 476.309029494 485 436 c 2
 485.00390625 332.200195312 l 2
 485.004882812 296.653320312 479.801855665 274.443500708 454 256.990234375 c 1
 479.010930627 241.293140754 485 219.552734375 485 181 c 2
 485 54 l 2
 485 16.2800179441 472.072335187 0 435 0 c 2
 72 0 l 2
 34.9249224775 0 22 16.2702793287 22 54 c 2
 22 300 l 2
 22 337.333333333 40.6796987587 354.99862729 78 354.999023438 c 2
 170 355 l 1
 170 379 l 10
 170 388 164.666992188 394.000976562 154 394.000976562 c 2
 23 394 l 1
 23 497 l 1
 196 497 l 2
 234.65625 497 259.806640625 479.784678435 259.806640625 438 c 2
 259.806640625 253 l 1
 167 253 l 2
 156.014404664 253 146 246.666666667 146 234 c 2
 146 129 l 2
 146 114.333333333 152 107 164 107 c 2
EndSplineSet
EndChar

StartChar: si_Ja
Encoding: 30 3490 445
GlifName: si_J_a
Width: 513
VWidth: 1000
GlyphClass: 2
Flags: HMW
LayerCount: 2
Back
Fore
SplineSet
429 486 m 1
 291.999023438 486.400390625 l 1
 301.851346098 493.377132638 312.738603822 498.21641707 331 532 c 2
 391 643 l 1
 524 643 l 1
 465.99609375 524 l 2
 455.392228783 502.245259456 437.586914062 489.982421875 429 486 c 1
164 107 m 2
 343 107 l 2
 355 107 361 114.333333333 361 129 c 2
 361 234 l 2
 361 246.666666667 354 253 340 253 c 2
 267 253 l 1
 267 443 l 2
 267 480.76604935 300.330693488 497 339 497 c 2
 484 497 l 1
 484 394 l 1
 379 394 l 2
 368.333333333 393.999674479 363 389.333007812 363 380 c 2
 363 356 l 1
 429 356 l 2
 466.333333333 356 485 337.333333333 485 300 c 2
 485 54 l 2
 485 16.2730356715 472.072335187 0 435 0 c 2
 72 0 l 2
 34.9249224775 0 22 16.2702793287 22 54 c 2
 22 300 l 2
 22 337.333333333 40.6666666667 356 78 356 c 2
 144 356 l 1
 144 380 l 10
 144 389 138.666666667 394 128 394 c 2
 23 394 l 1
 23 497 l 1
 168 497 l 2
 206.656282694 497 240 480.76084273 240 443 c 2
 240 253 l 1
 167 253 l 10
 156 253 146 246.666666667 146 234 c 2
 146 129 l 2
 146 114.333333333 152 107 164 107 c 2
EndSplineSet
EndChar

StartChar: si_Jha
Encoding: 31 3491 446
GlifName: si_J_ha
Width: 917
VWidth: 1000
GlyphClass: 2
Flags: HMW
LayerCount: 2
Back
Fore
SplineSet
661.216796875 338.2109375 m 25
 558.018554688 338.2109375 l 2
 551.083007812 338.2109375 548.022460938 334.502929688 548.022460938 328.41015625 c 2
 548.022460938 126 l 2
 548.022460938 113.333007812 554.35546875 107 567.022460938 107 c 2
 583.821289062 107 l 2
 598.487304688 107 605.821289062 115.333007812 605.821289062 132 c 2
 605.821289062 244.795898438 l 1
 705.416992188 244.795898438 l 1
 705.416992188 134 l 2
 705.416992188 116 713.083007812 107 728.416992188 107 c 2
 746.015625 107 l 2
 757.348632812 107 763.015625 114 763.015625 128 c 2
 763.015625 479 l 2
 763.015625 503.8515625 755.90234375 510 732.018554688 510 c 2
 424.01953125 510 l 1
 424.01953125 626 l 1
 814.018554688 626 l 2
 856.327148438 626 887.016601562 609.263671875 887.016601562 560 c 2
 887.016601562 50 l 2
 887.016601562 19.6376953125 873.415039062 0 840.018554688 0 c 2
 703.821289062 0 l 2
 677.821289062 0 661.487304688 12.3330078125 654.821289062 37 c 1
 651.647460938 16.3779296875 631.090820312 0 607.821289062 0 c 2
 471.018554688 0 l 2
 439.627929688 0 424.018554688 15.017578125 424.018554688 48 c 2
 424.018554688 371 l 2
 424.018554688 413.076149791 442.03989003 444.826592637 483.018554688 445.010742188 c 2
 661.215820312 445.811523438 l 1
 661.216796875 338.2109375 l 25
275.400390625 244.000976562 m 6
 275.400390625 256.666015625 270.400390625 263.000976562 260.400390625 263.000976562 c 6
 145 263.000976562 l 5
 115.399414062 237.000976562 l 5
 143.79296875 237.000976562 l 5
 143.99609375 223.000976562 l 21
 138.510742188 219.224609375 131.99609375 205.955078125 131.99609375 181.803710938 c 6
 131.99609375 128.000976562 l 6
 131.99609375 110.666992188 134.65625 108.000976562 145.99609375 108.000976562 c 6
 154.397460938 108.000976562 l 6
 167.482421875 108.000976562 169.397460938 113.66796875 169.397460938 125.001953125 c 6
 169.397460938 189.000976562 l 5
 237.397460938 189.000976562 l 5
 237.397460938 127.000976562 l 6
 237.397460938 112.333984375 240.106445312 108.000976562 251.397460938 108.000976562 c 6
 262.400390625 108.000976562 l 6
 272.60546875 108.000976562 275.400390625 112.803710938 275.400390625 130.802734375 c 6
 275.400390625 244.000976562 l 6
660.793945312 447.012695312 m 5
 440 377.201171875 l 6
 329.602539062 390.598632812 l 6
 326.477539062 391.041015625 319.48046875 391.799804688 316.602539062 391.799804688 c 4
 300.822265625 391.798828125 292.494140625 390.784179688 276.198242188 376.591796875 c 6
 251.407226562 355.000976562 l 5
 331.400390625 355.000976562 l 6
 363.212890625 355.000976562 384.400390625 337.696289062 384.400390625 298.000976562 c 6
 384.400390625 51.0009765625 l 6
 384.400390625 14.955078125 361.044921875 0.0009765625 331.400390625 0.0009765625 c 6
 241.397460938 0.0009765625 l 6
 222.4375 0.0009765625 209.064453125 9.66796875 204.397460938 29.001953125 c 5
 199.73046875 9.66796875 183.08984375 0.0009765625 165.397460938 0.0009765625 c 6
 65.99609375 0.0009765625 l 6
 34.1328125 0.0009765625 22 19.8173828125 22 50.001953125 c 6
 22 140.201171875 l 6
 22 180.99609375 34.2734375 195.265625 48 203.001953125 c 5
 11.9970703125 203.001953125 l 5
 11.9970703125 276.397460938 l 5
 11.9970703125 276.397460938 87.408203125 342.000976562 130.608398438 380.401367188 c 5
 130.608398438 381.999023438 l 6
 130.608398438 391.228515625 119.918945312 393.971679688 107.01171875 394.001953125 c 6
 22 394.201171875 l 5
 22 497.201171875 l 5
 185.409179688 497.000976562 l 6
 217.091796875 496.962890625 221.004882812 469.791015625 221.004882812 461.598632812 c 6
 221.004882812 459.3984375 l 5
 243.599609375 475.202148438 l 6
 267.182617188 490.3828125 280.127929688 491.401367188 301 491.401367188 c 4
 308.069335938 491.401367188 329.48828125 489.30859375 346 487.201171875 c 6
 660.793945312 447.012695312 l 5
EndSplineSet
EndChar

StartChar: si_Nya
Encoding: 32 3492 447
GlifName: si_N_ya
Width: 1015
VWidth: 1000
GlyphClass: 2
Flags: HMW
LayerCount: 2
Back
Fore
SplineSet
437.796875 244.000976562 m 2
 437.796875 256.666015625 432.796875 263.000976562 422.796875 263.000976562 c 2
 307.396484375 263.000976562 l 1
 277.795898438 237.000976562 l 1
 306.189453125 237.000976562 l 1
 306.392578125 223.000976562 l 17
 300.907226562 219.224609375 294.392578125 205.955078125 294.392578125 181.803710938 c 2
 294.392578125 128.000976562 l 2
 294.392578125 110.666992188 297.052734375 108.000976562 308.392578125 108.000976562 c 2
 316.793945312 108.000976562 l 2
 329.87890625 108.000976562 331.793945312 113.66796875 331.793945312 125.001953125 c 2
 331.793945312 189.000976562 l 1
 399.793945312 189.000976562 l 1
 399.793945312 127.000976562 l 2
 399.793945312 112.333984375 402.502929688 108.000976562 413.793945312 108.000976562 c 2
 424.796875 108.000976562 l 2
 435.001953125 108.000976562 437.796875 112.803710938 437.796875 130.802734375 c 2
 437.796875 244.000976562 l 2
591.989257812 497 m 1
 592 394.19921875 l 1
 500 394 l 2
 484.423893319 393.966271168 470.375155204 392.896537614 461 389 c 0
 454.826154574 386.434002915 443.137662251 379.687501921 434.002929688 372 c 2
 413.803710938 355.000976562 l 1
 493.796875 355.000976562 l 2
 525.609375 355.000976562 546.796875 337.696289062 546.796875 298.000976562 c 2
 546.796875 51.0009765625 l 2
 546.796875 14.955078125 523.44140625 0.0009765625 493.796875 0.0009765625 c 2
 403.793945312 0.0009765625 l 2
 384.833984375 0.0009765625 371.4609375 9.66796875 366.793945312 29.001953125 c 1
 362.126953125 9.66796875 345.486328125 0.0009765625 327.793945312 0.0009765625 c 2
 228.392578125 0.0009765625 l 2
 196.529296875 0.0009765625 184.396484375 19.8173828125 184.396484375 50.001953125 c 2
 184.396484375 140.201171875 l 2
 184.396484375 180.99609375 196.669921875 195.265625 210.396484375 203.001953125 c 1
 174.393554688 203.001953125 l 1
 174.393554688 276.397460938 l 1
 174.393554688 276.397460938 249.8046875 342.000976562 293.004882812 380.401367188 c 1
 293.004882812 381.999023438 l 2
 293.004882812 391.228515625 282.315429688 393.971679688 269.408203125 394.001953125 c 2
 184.396484375 394.201171875 l 1
 184.396484375 497.201171875 l 1
 347.805664062 497.000976562 l 2
 379.48828125 496.962890625 383.401367188 469.791015625 383.401367188 461.598632812 c 2
 383.401367188 459.3984375 l 1
 405.99609375 475.202148438 l 2
 431.312427245 492.9094668 461.669986282 497 486 497 c 2
 591.989257812 497 l 1
158.998046875 410.598632812 m 6
 146.59765625 410.598632812 140.000976562 404.59765625 140.000976562 386.59765625 c 6
 140.000976562 0 l 1
 22 0 l 1
 22 406 l 2
 22 459.608800016 56.2470703125 497 108.400390625 497 c 2
 255.001953125 496.999023438 l 1
 202.000976562 410.59765625 l 5
 158.998046875 410.598632812 l 6
EndSplineSet
Refer: 458 3503 N 1 0 0 1 554.4 0 2
EndChar

StartChar: si_Jnya
Encoding: 33 3493 448
GlifName: si_J_nya
Width: 1011
VWidth: 1000
GlyphClass: 2
Flags: HMW
LayerCount: 2
Back
Fore
SplineSet
588.000976562 394.00390625 m 25
 540.389648438 394.00390625 l 2
 527.056640625 394.00390625 519.056640625 388.336914062 516.389648438 377.00390625 c 2
 498.186523438 288 l 1
 500.936523438 287.927734375 l 2
 515.76953125 287.538085938 523.186523438 276.895507812 523.186523438 256 c 2
 523.186523438 60 l 2
 523.186523438 12.607421875 503.786132812 0 456.186523438 0 c 2
 238.000976562 0 l 2
 201.362304688 0 190.000976562 14.0517578125 190.000976562 51 c 2
 190.000976562 440.999023438 l 2
 190.000976562 478.33203125 208.333984375 496.999023438 245.000976562 496.999023438 c 2
 364.782226562 496.999023438 l 1
 364.782226562 394 l 1
 337.000976562 393.998046875 l 2
 316.818359375 393.997070312 314.000976562 389.12890625 314.000976562 368.998046875 c 2
 314.000976562 128 l 2
 314.000976562 114 319.66796875 107 331.000976562 107 c 2
 382.186523438 107 l 2
 401.895507812 107 402.186523438 111.540039062 402.186523438 132 c 2
 402.186523438 196 l 2
 402.186523438 209.333007812 397.186523438 216 387.186523438 216 c 2
 373.186523438 216 l 1
 411.186523438 446 l 2
 417.186523438 480 441.186523438 497 483.186523438 497 c 2
 588 497 l 25
 588.000976562 394.00390625 l 25
158.998046875 398.000976562 m 2
 146.59765625 398.000976562 140.000976562 392 140.000976562 374 c 2
 140.000976562 0 l 1
 22 0 l 1
 22 406 l 2
 22 459.608800016 56.2470703125 497 108.400390625 497 c 2
 255.001953125 496.999023438 l 1
 202.000976562 398 l 1
 158.998046875 398.000976562 l 2
EndSplineSet
Refer: 458 3503 N 1 0 0 1 550.2 0 2
EndChar

StartChar: si_Ndja
Encoding: 34 3494 449
GlifName: si_N_dja
Width: 683
VWidth: 1000
GlyphClass: 2
Flags: HMW
LayerCount: 2
Back
Fore
SplineSet
158.998046875 409.000976562 m 2
 146.59765625 409.000976562 140.000976562 403 140.000976562 385 c 2
 140.000976562 0 l 1
 22 0 l 1
 22 406 l 2
 22 459.608800016 56.2470703125 497 108.400390625 497 c 2
 255.001953125 496.999023438 l 1
 202.000976562 409 l 1
 158.998046875 409.000976562 l 2
EndSplineSet
Refer: 445 3490 N 1 0 0 1 169.2 0 2
EndChar

StartChar: si_Tta
Encoding: 35 3495 450
GlifName: si_T_ta
Width: 515
VWidth: 1000
GlyphClass: 2
Flags: HMW
LayerCount: 2
Back
Fore
SplineSet
254 314 m 1
 167 314 l 2
 153 314 146 307.666992188 146 295 c 2
 146 129 l 2
 146 114.333333333 152 107 164 107 c 2
 343 107 l 2
 355 107 361 114.333333333 361 129 c 2
 361 415 l 1
 485 415 l 1
 485 54 l 2
 485 16.2702793287 472.075077523 0 435 0 c 2
 72 0 l 2
 34.9276648127 0 22 16.2730356715 22 54 c 2
 22 365.6015625 l 2
 22 402.268554688 40.6669921875 420.6015625 78 420.6015625 c 2
 253.998046875 420.6015625 l 1
 254 314 l 1
416 625 m 2
 471 625 485 600.686523438 485 544 c 2
 485 400 l 1
 361 400 l 1
 361 494.6015625 l 2
 361 512.950195312 354.061523438 517.6015625 335 517.6015625 c 2
 22 517.6015625 l 1
 22 625 l 1
 416 625 l 2
EndSplineSet
EndChar

StartChar: si_Ttha
Encoding: 36 3496 451
GlifName: si_T_tha
Width: 515
VWidth: 1000
GlyphClass: 2
Flags: HMW
LayerCount: 2
Back
Fore
SplineSet
293.203125 538 m 1
 293.203125 514.599609375 l 2
 293.203125 496.19140625 300.60546875 496.014648438 314.986328125 496.014648438 c 2
 358.19921875 496.014648438 l 25
 358.200195312 522.000976562 l 2
 358.200195312 529.7109375 356.312399976 538 346 538 c 2
 293.203125 538 l 1
485.000976562 394 m 1
 360.19921875 394 l 1
 360.19921875 427.014648438 l 1
 228.986328125 427.014648438 l 2
 195.694335938 427.014648438 183.203125 437.986328125 183.203125 474.400390625 c 2
 183.203125 539 l 1
 137.80859375 539 l 1
 137.80859375 626 l 25
 419 626 l 2
 466.559570312 626 485.000976562 610.567382812 485.000976562 559 c 2
 485.000976562 394 l 1
484.998046875 407 m 25
 484.998046875 50 l 2
 484.998046875 19.6378740064 471.396408352 -4.08988045911e-15 438 0 c 2
 301.802734375 0 l 2
 275.802734375 0 259.46875 12.3330078125 252.802734375 37 c 1
 249.62890625 16.3779296875 229.072265625 0 205.802734375 0 c 2
 69 0 l 2
 37.6095578425 0 22 15.0175781253 22 48 c 2
 22 328.600585938 l 2
 22 367.155273438 40.0205078125 393.600585938 81 393.600585938 c 2
 259.197265625 393.600585938 l 1
 259.198242188 286 l 25
 156 286 l 2
 149.064453125 286 146.00390625 282.291992188 146.00390625 276.19921875 c 2
 146.00390625 126 l 2
 146.00390625 113.333007817 152.336914062 107 165.00390625 107 c 2
 181.802734375 107 l 2
 196.46875 107 203.802734375 115.333007812 203.802734375 132 c 2
 203.802734375 222 l 1
 303.3984375 222 l 1
 303.3984375 134 l 2
 303.3984375 116 311.064453125 107 326.3984375 107 c 2
 343.997070312 107 l 2
 355.330078125 107 361.047101952 114.000157138 360.997070312 128 c 2
 360 407 l 25
 484.998046875 407 l 25
EndSplineSet
EndChar

StartChar: si_Dda
Encoding: 37 3497 452
GlifName: si_D_da
Width: 564
VWidth: 1000
GlyphClass: 2
Flags: HMW
LayerCount: 2
Back
Fore
SplineSet
-6 329.002929688 m 1
 88 329.002929688 l 1
 88 232.002929688 l 1
 -6 232.002929688 l 1
 -6 329.002929688 l 1
69.998046875 0 m 2
 33 0 22 16.2730356715 22 54 c 2
 22 191.006835938 l 2
 22 212.33984375 29.6669921875 226.673828125 45 234.006835938 c 1
 61.2197265625 256.30859375 40.8583984375 329.006835938 78 329.006835938 c 2
 168.049804688 329.006835938 l 1
 168.041992188 329.234375 168 352.006835938 168 352.006835938 c 10
 168 362.006835938 161.333007812 367.006835938 148 367.006835938 c 2
 23 367.006835938 l 1
 23 470.006835938 l 1
 192 470.006835938 l 2
 230.668945312 470.006835938 264 453.772460938 264 416.006835938 c 2
 264 226.006835938 l 1
 169 226.006835938 l 2
 153.666992188 226.006835938 146 220.33984375 146 209.006835938 c 2
 146 130 l 2
 146 114.666666667 152 107 164.803710938 107 c 2
 181.802734375 107 l 2
 196 107 203.802734375 115.333007812 203.802734375 132 c 2
 203.802734375 185.405273438 l 1
 303.3984375 185.405273438 l 1
 303.3984375 134 l 2
 303.3984375 116 311.064453125 107 326.3984375 107 c 2
 343.997070312 107 l 2
 355.330078125 107 360.997070312 114 360.997070312 128 c 2
 360.997070312 479 l 2
 360.997070312 503.8515625 353.883832287 510 330 510 c 2
 22.0009765625 510 l 1
 22.0009765625 626 l 1
 412 626 l 2
 454.30859375 626 484.998046875 609.263671875 484.998046875 560 c 2
 484.998046875 50 l 2
 484.998046875 19.6378740064 471.396408352 -4.08988045911e-15 438 0 c 2
 301.802734375 0 l 2
 275.802734375 0 259.46875 12.3330078125 252.802734375 37 c 1
 249.62890625 16.3779296875 229 0 205.802734375 0 c 2
 69.998046875 0 l 2
EndSplineSet
EndChar

StartChar: si_Nndda
Encoding: 40 3500 455
GlifName: si_N_ndda
Width: 700
VWidth: 1000
GlyphClass: 2
Flags: HMW
LayerCount: 2
Back
Fore
SplineSet
158.998046875 384.000976562 m 2
 146.59765625 384.000976562 140.000976562 378 140.000976562 360 c 2
 140.000976562 0 l 1
 22 0 l 1
 22 379.000976562 l 2
 22 432.609375 56.2470703125 470.000976562 108.400390625 470.000976562 c 2
 255.001953125 470 l 1
 214 384 l 1
 158.998046875 384.000976562 l 2
EndSplineSet
Refer: 452 3497 N 1 0 0 1 184.8 4.47035e-08 2
EndChar

StartChar: si_Tha
Encoding: 42 3502 457
GlifName: si_T_ha
Width: 515
VWidth: 1000
GlyphClass: 2
Flags: HMW
LayerCount: 2
Back
Fore
SplineSet
293.203125 538 m 5
 293.203125 514.599609375 l 6
 293.203125 496.19140625 300.60546875 496.014648438 314.986328125 496.014648438 c 6
 358.19921875 496.014648438 l 29
 358.200195312 522.000976562 l 6
 358.200195312 529.7109375 356.312399976 538 346 538 c 6
 293.203125 538 l 5
485.000976562 394 m 5
 360.19921875 394 l 5
 360.19921875 427.014648438 l 5
 228.986328125 427.014648438 l 6
 195.694335938 427.014648438 183.203125 437.986328125 183.203125 474.400390625 c 6
 183.203125 539 l 5
 137.80859375 539 l 5
 137.80859375 626 l 29
 419 626 l 6
 466.559570312 626 485.000976562 610.567382812 485.000976562 559 c 6
 485.000976562 394 l 5
254 287.399414062 m 1
 167 287.399414062 l 2
 153 287.399414062 146 281.06640625 146 268.399414062 c 2
 146 129 l 2
 146 114.333333333 152 107 164 107 c 2
 342.19921875 107 l 2
 354.19921875 107 360.19921875 114.333007812 360.19921875 129 c 2
 360.19921875 415 l 1
 485 415 l 1
 485 54 l 2
 485 16.2702793287 472.075077523 0 435 0 c 2
 72 0 l 2
 34.9276648127 0 22 16.2730356715 22 54 c 2
 22 339.000976562 l 2
 22 375.66796875 40.6669921875 394.000976562 78 394.000976562 c 2
 253.998046875 394.000976562 l 1
 254 287.399414062 l 1
EndSplineSet
EndChar

StartChar: si_Da
Encoding: 43 3503 458
GlifName: si_D_a
Width: 460
VWidth: 1000
GlyphClass: 2
Flags: HMW
LayerCount: 2
Back
Fore
SplineSet
429 0.0009765625 m 5
 269 0 l 6
 247.859199959 -0.000129033203376 238 -10.0111359748 238 -30 c 6
 238 -46 l 134
 238 -59.1377031516 246.031000095 -64 259 -64 c 6
 452 -64 l 5
 452 -171 l 5
 161 -171 l 6
 132.812834951 -171 109 -159.62247684 109 -126 c 6
 109 -56 l 6
 109 -22.2028384552 114.799680004 -9.37760001448 138 0 c 5
 66 0 l 6
 32.306640625 0 22 17.9256114795 22 49.599609375 c 6
 22 298 l 6
 22 338.656512024 43.1062931376 355 80 355 c 6
 301 355 l 5
 300.999023438 378 l 6
 300.998458375 391.308355904 296.337890625 394.000976562 287.004882812 394.000976562 c 6
 22 394.000976562 l 5
 22 497.000976562 l 5
 372 497 l 6
 405.564874373 496.999906348 425 480.912637473 425 444 c 6
 425 253.000976562 l 5
 168 253 l 6
 151.333007812 253 146 245.66796875 146 231.000976562 c 6
 146 133.000976562 l 6
 146 113.158847975 151.047851562 107 166.200195312 107 c 6
 429 107.000976562 l 5
 429 0.0009765625 l 5
EndSplineSet
EndChar

StartChar: si_Dha
Encoding: 44 3504 459
GlifName: si_D_ha
Width: 515
VWidth: 1000
GlyphClass: 2
Flags: HMW
LayerCount: 2
Back
Fore
SplineSet
259.198242188 351.399414062 m 29
 156 351.399414062 l 6
 149.064453125 351.399414062 146.00390625 347.69140625 146.00390625 341.598632812 c 6
 146.00390625 126 l 6
 146.00390625 113.333007817 152.336914062 107 165.00390625 107 c 6
 181.802734375 107 l 6
 196.46875 107 203.802734375 115.333007812 203.802734375 132 c 6
 203.802734375 244.795898438 l 5
 303.3984375 244.795898438 l 5
 303.3984375 134 l 6
 303.3984375 116 311.064453125 107 326.3984375 107 c 6
 343.997070312 107 l 6
 355.330078125 107 360.997070312 114 360.997070312 128 c 6
 360.997070312 479 l 6
 360.997070312 503.8515625 353.883832287 510 330 510 c 6
 22.0009765625 510 l 5
 22.0009765625 626 l 5
 412 626 l 6
 454.30859375 626 484.998046875 609.263671875 484.998046875 560 c 6
 484.998046875 50 l 6
 484.998046875 19.6378740064 471.396408352 -4.08988045911e-15 438 0 c 6
 301.802734375 0 l 6
 275.802734375 0 259.46875 12.3330078125 252.802734375 37 c 5
 249.62890625 16.3779296875 229.072265625 0 205.802734375 0 c 6
 69 0 l 6
 37.6095578425 0 22 15.0175781253 22 48 c 6
 22 394 l 6
 22 432.5546875 40.0200264343 459 81 459 c 6
 259.197265625 459 l 5
 259.198242188 351.399414062 l 29
EndSplineSet
EndChar

StartChar: si_Na
Encoding: 45 3505 460
GlifName: si_N_a
Width: 591
VWidth: 1000
GlyphClass: 2
Flags: HMW
LayerCount: 2
Back
Fore
SplineSet
266 418 m 5
 176 311 l 5
 176 373.5 l 6
 176 387.166666667 168.333333333 394 153 394 c 6
 22 394 l 5
 22 497 l 5
 195 497 l 6
 238.331674844 497 266 474.112692341 266 431 c 6
 266 418 l 5
212 223 m 5
 292 314.559570312 l 5
 336.4140625 314.5 l 6
 371.416015625 314.430664062 384.4140625 299.698242188 384.4140625 266.572265625 c 6
 384.4140625 60 l 6
 384.4140625 12.607421875 365.013671875 0 317.4140625 0 c 6
 70 0 l 6
 33.361328125 0 22 14.0517578125 22 51 c 6
 22 341.25 l 5
 136.5 341.25 l 5
 136.5 278.798828125 l 5
 144.5 160.802734375 l 5
 144.5 125.25 l 6
 144.5 111.039828958 147.676351654 107 161.5 107 c 6
 243.4140625 107 l 6
 263.123046875 107 263.4140625 111.540039062 263.4140625 132 c 6
 263.4140625 203 l 6
 263.4140625 216.333007812 258.4140625 223 248.4140625 223 c 6
 212 223 l 5
170 162.802734375 m 6
 163.282226562 155.150390625 156.698242188 151.32421875 150.25 151.32421875 c 4
 140.75 151.32421875 136 153.56640625 136 158.052734375 c 13
 134 298.147460938 l 5
 137.068359375 296.313476562 139.318359375 295.396484375 140.75 295.396484375 c 4
 143.446289062 295.396484375 146.196289062 297.063476562 149 300.397460938 c 6
 276 454 l 6
 298.473337378 480.181069504 314.071696697 497 357.25 497 c 6
 494.599609375 497 l 6
 540.823242188 497 561.599609375 479.952148438 561.599609375 434 c 6
 561.599609375 64 l 6
 561.599609375 15.2900390625 547.733398438 0 498.599609375 0 c 6
 401.599609375 0 l 5
 401.599609375 107 l 5
 414.999023438 107 l 6
 435.639648438 107 436.999023438 112.033203125 436.999023438 133 c 6
 436.999023438 372 l 6
 436.999023438 384 430.999023438 390 418.999023438 390 c 6
 385 390 l 6
 376.333333333 390 367 384.333333333 357 373 c 6
 170 162.802734375 l 6
EndSplineSet
EndChar

StartChar: si_Pa
Encoding: 47 3508 462
GlifName: si_P_a
Width: 509
VWidth: 1000
GlyphClass: 2
Flags: HMW
LayerCount: 2
Back
Fore
SplineSet
164 107 m 6
 343 107 l 6
 355 107 361 114.333333333 361 129 c 6
 361 234 l 6
 361 246.666666667 354 253 340 253 c 6
 267 253 l 5
 267 443 l 6
 267 480.76604935 300.330693488 497 339 497 c 6
 484 497 l 5
 484 394 l 5
 379 394 l 6
 368.333333333 393.999674479 363 389.333007812 363 380 c 6
 363 356 l 5
 429 356 l 6
 466.333333333 356 485 337.333333333 485 300 c 6
 485 54 l 6
 485 16.2730356715 472.072335187 0 435 0 c 6
 72 0 l 6
 34.9249224775 0 22 16.2702793287 22 54 c 6
 22 300 l 6
 22 337.333333333 40.6666666667 356 78 356 c 6
 144 356 l 5
 144 380 l 14
 144 389 138.666666667 394 128 394 c 6
 23 394 l 5
 23 497 l 5
 168 497 l 6
 206.656282694 497 240 480.76084273 240 443 c 6
 240 253 l 5
 167 253 l 14
 156 253 146 246.666666667 146 234 c 6
 146 129 l 6
 146 114.333333333 152 107 164 107 c 6
EndSplineSet
EndChar

StartChar: si_Va
Encoding: 56 3520 471
GlifName: si_V_a
Width: 515
VWidth: 1000
GlyphClass: 2
Flags: HMW
LayerCount: 2
Back
Fore
SplineSet
485 415 m 5
 485 54 l 6
 485 16.2702793287 472.075077523 0 435 0 c 6
 72 0 l 6
 34.9276648127 0 22 16.2730356715 22 54 c 6
 22 263.999023438 l 6
 22 300.666015625 40.6669921875 318.999023438 78 318.999023438 c 6
 144 318.999023438 l 5
 144 353 l 6
 144 362.333007812 138.666992188 367 128 367 c 6
 21.9990234375 367 l 5
 21.9990234375 470 l 5
 205 470 l 6
 246.705078125 470 267.999023438 448.41015625 267.999023438 412 c 6
 267.999023438 224.999023438 l 5
 167 224.999023438 l 6
 153 224.999023438 146 218.666015625 146 205.999023438 c 6
 146 129 l 6
 146 114.333333333 152 107 164 107 c 6
 343 107 l 6
 355 107 361 114.333333333 361 129 c 6
 361 415 l 5
 485 415 l 5
416 625 m 6
 471 625 485 600.686523438 485 544 c 6
 485 400 l 5
 361 400 l 5
 361 494.6015625 l 6
 361 512.950195312 354.061523438 517.6015625 335 517.6015625 c 6
 22 517.6015625 l 5
 22 625 l 5
 416 625 l 6
EndSplineSet
EndChar

StartChar: si_Sa
Encoding: 59 3523 474
GlifName: si_S_a
Width: 576
VWidth: 1000
GlyphClass: 2
Flags: HMW
LayerCount: 2
Back
Fore
SplineSet
225 0 m 2
 72 0 l 2
 34.9276648127 0 22 16.2730356715 22 54 c 2
 22 218 l 2
 22 239.333333333 29.6666666667 253.666666666 45 261 c 1
 61.2197741946 283.302189517 40.8581471954 355.999999999 78 356 c 2
 168.049804688 356 l 1
 168.041637005 356.227465553 168 379 168 379 c 10
 168 389 161.333333333 394 148 394 c 2
 23 394 l 1
 23 497 l 1
 192 497 l 2
 230.669306512 497 264 480.76604935 264 443 c 2
 264 253 l 1
 169 253 l 2
 153.666666667 253 146 247.333333333 146 236 c 2
 146 130 l 2
 146 114.666666667 152 107 164 107 c 2
 196 107 l 2
 213.333333333 107 222 115.666666667 222 133 c 2
 222 190 l 1
 334 190 l 1
 334 133 l 2
 334 115.666666667 343 107 361 107 c 2
 392 107 l 2
 404 107 410 114.666666667 410 130 c 2
 410 236 l 2
 410 247.333333333 402.333333333 253 387 253 c 2
 292 253 l 1
 291.999023438 443 l 2
 291.999023438 480.775390625 325.296192405 497 364 497 c 2
 533 497 l 1
 533 394 l 1
 409 394 l 2
 395 394 388 389 388 379 c 2
 388 356 l 1
 470 356 l 2
 513.528624049 356 534 339.260431523 534 296 c 2
 534 54 l 2
 534 16.2702793287 521.075077523 0 484 0 c 2
 331 0 l 2
 304.431247633 0 278 19.881055629 278 46 c 1
 278 19.8847531612 251.561565667 0 225 0 c 2
-6 355.99609375 m 1
 88 355.99609375 l 1
 88 258.99609375 l 1
 -6 258.99609375 l 1
 -6 355.99609375 l 1
EndSplineSet
EndChar

StartChar: si_Ha
Encoding: 60 3524 475
GlifName: si_H_a
Width: 590
VWidth: 1000
GlyphClass: 2
Flags: HMW
LayerCount: 2
Back
Fore
SplineSet
146 128 m 6
 146 114 151.666666667 107 163 107 c 6
 229 107 l 6
 248.708984375 107 249 111.540039062 249 132 c 6
 249 196 l 6
 249 209.333007812 244 216 234 216 c 6
 220 216 l 5
 258 446 l 6
 264 480 288 497 330 497 c 6
 495 497 l 6
 541.223632812 497 562 479.952148438 562 434 c 6
 562 64 l 6
 562 15.2900390625 548.133789062 0 499 0 c 6
 402 0 l 5
 402 107 l 5
 416 107 l 6
 436.639648438 107 438 112.033203125 438 133 c 6
 438 372 l 6
 438 384 432 390 420 390 c 6
 384 390 l 6
 370.666992188 390 362.666992188 384.333007812 360 373 c 6
 345 288 l 5
 347.75 287.927734375 l 6
 362.583007812 287.538085938 370 276.895507812 370 256 c 6
 370 60 l 6
 370 12.607421875 350.599609375 0 303 0 c 6
 70 0 l 6
 33.361328125 0 22 14.0517578125 22 51 c 6
 22 299 l 6
 22 336.333007812 40.3330078125 355 77 355 c 6
 106 355 l 5
 106 377 l 6
 106 392.225801888 100.532594477 394 85 394 c 6
 22 394 l 5
 22 497 l 5
 125 497 l 6
 168.331674844 497 196 474.112692341 196 431 c 6
 197 253 l 5
 169 253 l 6
 148.817633673 253 146 248.130720108 146 228 c 6
 146 128 l 6
EndSplineSet
EndChar

StartChar: si_Halant
Encoding: 63 3530 478
GlifName: si_H_alant
Width: 2
VWidth: 1000
GlyphClass: 2
Flags: HMW
LayerCount: 2
Back
Fore
SplineSet
-159.202148438 492.396484375 m 1
 -159.202148438 649 l 1
 -35 649 l 1
 -35 426 l 1
 -39.6669921875 433.333007812 -55.08203125 462.635742188 -67 470.791015625 c 128
 -79.4560546875 479.315429688 -98.498046875 492.396484375 -124 492.396484375 c 2
 -159.202148438 492.396484375 l 1
EndSplineSet
EndChar

StartChar: si_MatraAa
Encoding: 64 3535 479
GlifName: si_M_atraA_a
Width: 232
VWidth: 1000
GlyphClass: 2
Flags: HMW
LayerCount: 2
Back
Fore
SplineSet
21 497 m 5
 160 497 l 6
 189.994512987 497 201 482.086655972 201 455.002929688 c 6
 201 38 l 6
 201 12.6666666667 187.333333333 0 160 0 c 6
 21 0 l 5
 21 107 l 5
 58.9990234375 107 l 6
 71.877439976 107 77 113.317382812 77 126.197265625 c 6
 77 377 l 6
 77 388.333007812 71 394 59 394 c 6
 21 394 l 5
 21 497 l 5
EndSplineSet
EndChar

StartChar: si_MatraAe
Encoding: 65 3536 480
GlifName: si_M_atraA_e
Width: 250
VWidth: 1000
GlyphClass: 2
Flags: HMW
LayerCount: 2
Back
Fore
SplineSet
22 497 m 1
 220 497 l 1
 220 388 l 1
 154 226.999023438 l 2
 148.09375 212.590820312 146 197.099609375 146 178 c 2
 146 126 l 2
 146 113.333007812 152.666992188 107 166 107 c 2
 220 107.000976562 l 1
 220 0.0009765625 l 1
 57 0 l 2
 36.3330078125 0 22 12.0009765625 22 36.0009765625 c 2
 22 184 l 2
 22 212.7578125 25.984375 233.708007812 36 256 c 2
 98 394 l 1
 22 394 l 1
 22 497 l 1
EndSplineSet
EndChar

StartChar: si_MatraAae
Encoding: 66 3537 481
GlifName: si_M_atraA_ae
Width: 248
VWidth: 1000
GlyphClass: 2
Flags: HMW
LayerCount: 2
Back
Fore
SplineSet
22.0009765625 497 m 5
 218 497 l 5
 218 399.801757812 l 5
 145.000976562 355.793945312 l 5
 218 355.793945312 l 5
 218 270.793945312 l 5
 160.598632812 204.3984375 l 6
 147.686523438 188.02734375 145.999023438 174.666992188 145.999023438 156 c 6
 145.999023438 126.000976562 l 6
 145.999023438 108.9765625 146.375976562 107.000976562 162.999023438 107.000976562 c 6
 218 107.000976562 l 5
 218 0.0009765625 l 5
 52.0009765625 0.0009765625 l 6
 32.0009765625 0.0009765625 22.0011718766 12.0009765641 22.0009765625 36.0009765625 c 6
 22 156 l 6
 22 180.666992188 25.0441261645 198.059894983 41.6025390625 216.3984375 c 6
 90.0009765625 263.793945312 l 5
 22.0009765625 263.793945312 l 5
 22.0009765625 352.793945312 l 5
 83.0009765625 395 l 5
 22.0009765625 395 l 5
 22.0009765625 497 l 5
EndSplineSet
EndChar

StartChar: si_MatraI
Encoding: 67 3538 482
GlifName: si_M_atraI_
Width: 2
VWidth: 0
GlyphClass: 2
Flags: HMW
LayerCount: 2
Back
Fore
SplineSet
-590.009765625 511 m 5
 -590.009765625 595.802734375 l 6
 -590.009765625 625.796875 -573.09375 640 -546.009765625 640 c 6
 -108 640 l 6
 -82.6669921875 640 -67 628.565429688 -67 597 c 6
 -67 511 l 5
 -191.004882812 511 l 5
 -191.004882812 528 l 6
 -191.004882812 540.877929688 -191.720703125 546.000976562 -204.600585938 546.000976562 c 6
 -453.009765625 546.000976562 l 6
 -464.342773438 546.000976562 -466.004882812 540.000976562 -466.004882812 528.000976562 c 6
 -466.004882812 511 l 5
 -590.009765625 511 l 5
EndSplineSet
EndChar

StartChar: si_MatraIi
Encoding: 68 3539 483
GlifName: si_M_atraI_i
Width: 515
VWidth: 1000
GlyphClass: 2
Flags: HMW
LayerCount: 2
Back
Fore
SplineSet
-217.000976562 582.198242188 m 2
 -227.000976562 582.198242188 -232.000976562 578.198242188 -232.000976562 570.198242188 c 2
 -232.000976562 562.010742188 l 2
 -232.000976562 553.34375 -226.66796875 549.010742188 -216.000976562 549.010742188 c 2
 -175.000976562 549.010742188 l 2
 -164.333984375 549.010742188 -159.000976562 553.677734375 -159.000976562 563.010742188 c 2
 -159.000976562 570.198242188 l 2
 -159.000976562 578.198242188 -164.66796875 582.198242188 -176.000976562 582.198242188 c 2
 -217.000976562 582.198242188 l 2
-453.009765625 546.000976562 m 2
 -464 546 -466.004882812 540.000976562 -466.004882812 528.000976562 c 2
 -466.004882812 511 l 1
 -590.009765625 511 l 1
 -590.009765625 595.802734375 l 2
 -590.009765625 625.796875 -573.790039062 640.010681983 -546.799804688 640.010742188 c 2
 -108.799804688 640.01171875 l 2
 -81.3203125 640.01171875 -67.0009765625 626.660625007 -67.0009765625 600 c 2
 -67.0009765625 540.99609375 l 2
 -67.0009765625 521.000283453 -77.0029296875 510.99609375 -97.0009765625 510.99609375 c 2
 -297.000976562 510.994140625 l 2
 -320.276367188 510.994140625 -325.000976562 520.250976562 -325.000976562 531.99609375 c 2
 -325.000976562 537.993164062 l 2
 -325.000976562 542.524414062 -324.18359375 545.001953125 -322.6015625 545.993164062 c 1
 -453.009765625 546.000976562 l 2
EndSplineSet
EndChar

StartChar: si_MatraU
Encoding: 69 3540 484
GlifName: si_M_atraU_
Width: 2
VWidth: 1000
GlyphClass: 2
Flags: HMW
LayerCount: 2
Back
Fore
SplineSet
-41.912109375 -159 m 5
 -499.202148438 -159 l 5
 -499.202148438 -53 l 5
 -164.912109375 -53 l 5
 -164.912109375 25 l 5
 -92.912109375 25 l 6
 -64.2451171875 25 -47.2451171875 38 -41.912109375 64 c 5
 -41.912109375 -159 l 5
EndSplineSet
EndChar

StartChar: si_MatraUu
Encoding: 70 3542 485
GlifName: si_M_atraU_u
Width: 2
VWidth: 1000
GlyphClass: 2
Flags: HMW
LayerCount: 2
Back
Fore
SplineSet
-41.9990234375 -158.999023438 m 1
 -158.598632812 -158.999023438 l 1
 -192 -138 l 2
 -205.521949963 -129.498918514 -218.453125 -127 -234 -127 c 2
 -240 -127 l 2
 -251.975585938 -127 -261.571124745 -128.900974254 -274 -134 c 2
 -313 -150 l 2
 -324.788554198 -154.836329927 -333 -159.000976562 -361 -159.000976562 c 2
 -455 -159.000976562 l 2
 -484.333007812 -159.000976562 -499 -147.016512029 -499 -120 c 2
 -499 -27.0009765625 l 1
 -382 -27.0009765625 l 1
 -382 -54.0009765625 l 2
 -382 -62.66796875 -378.936523438 -67.0009765625 -367 -67.0009765625 c 2
 -352 -67.0009765625 l 2
 -339 -67.0009765625 -329.854936191 -64.6398233481 -313 -58 c 2
 -280 -45 l 2
 -264.76953125 -39.388671875 -253.7250844 -37 -238 -37 c 2
 -221 -37 l 2
 -210.903320312 -37 -195.666662782 -37.9611098856 -182 -46 c 2
 -165.000976562 -55.9990234375 l 1
 -165.000976562 5.0009765625 l 1
 -86.9990234375 5.0009765625 l 2
 -60.9990234375 5.0009765625 -45.9990234375 19.0009765625 -41.9990234375 47.0009765625 c 1
 -41.9990234375 -158.999023438 l 1
EndSplineSet
EndChar

StartChar: si_MatraR
Encoding: 71 3544 486
GlifName: si_M_atraR_
Width: 346
VWidth: 1000
GlyphClass: 2
Flags: HMW
LayerCount: 2
Back
Fore
SplineSet
22 497.000976562 m 5
 266.999023438 497 l 6
 299.666015625 497 315.999023438 481.333007812 315.999023438 450 c 6
 315.999023438 0 l 5
 213 0 l 5
 199.803710938 40 l 5
 190.116210938 15.7880859375 175.723632812 0 151.803710938 0 c 6
 59 0 l 6
 34.1569535709 0 22 13.8708233875 22 42 c 6
 22 280 l 6
 22 310.313413961 41.6728515625 323.000976562 64.2001953125 323.000976562 c 6
 192.202148438 322.999023438 l 5
 192.202148438 371.999023438 l 6
 192.202148438 392.20703125 191.4375 393.999023438 171.202148438 393.999023438 c 6
 22 394.000976562 l 5
 22 497.000976562 l 5
192.202148438 223.999023438 m 5
 159.592773438 224 l 6
 149.674804688 224 146.000140185 219.91462343 146 208 c 6
 145.999023438 122.797851562 l 6
 145.999023438 110.797851562 148.328125 107 160.995117188 107 c 6
 172.999023438 107 l 6
 185.595703125 107 192.202148438 120.764482524 192.202148438 134 c 6
 192.202148438 223.999023438 l 5
EndSplineSet
EndChar

StartChar: si_MatraE
Encoding: 72 3545 487
GlifName: si_M_atraE_
Width: 376
VWidth: 1000
GlyphClass: 2
Flags: HMW
LayerCount: 2
Back
Fore
SplineSet
341 497 m 1
 75 497 l 2
 41.7041015625 497 22 477.08102403 22 445 c 2
 22 46 l 2
 22 17.814453125 35.5401032215 0 68 0 c 2
 295.19921875 0 l 2
 328.547851562 0 346 19.123046875 346 48.6005859375 c 2
 346 275.59375 l 2
 346 308.498046875 329.158203125 325.59375 293 325.59375 c 2
 183 325.59375 l 1
 183 226.59375 l 1
 203 226.59375 l 2
 218.5859375 226.59375 222 222.032226562 222 205.592773438 c 2
 222 126 l 2
 222 112 216.320640024 107 204 107 c 2
 164 107 l 2
 151.333007812 107 146 111.333007812 146 126 c 2
 146 373.801757812 l 2
 146 389.135742188 151.145507812 394 168.799804688 394 c 2
 341 393.999023438 l 1
 341 497 l 1
EndSplineSet
EndChar

StartChar: si_MatraLs
Encoding: 78 3551 493
GlifName: si_M_atraL_s
Width: 355
VWidth: 1000
GlyphClass: 2
Flags: HMW
LayerCount: 2
Back
Fore
SplineSet
22 496.799804688 m 5
 22 268 l 6
 22 245.365234375 35 235 55 235 c 6
 127.59375 235 l 6
 153.563476562 235 169.59375 242.905273438 169.59375 270 c 6
 169.59375 378.200195312 l 6
 169.59375 388.865234375 172.926757812 394.200195312 179.59375 394.200195312 c 6
 194.39453125 394.200195312 l 6
 200.39453125 394.200195312 203.39453125 389.533203125 203.39453125 380.200195312 c 6
 203.39453125 123.799804688 l 6
 203.39453125 112.466796875 201.59765625 106.799804688 191.59765625 106.799804688 c 6
 161 106.799804688 l 6
 147.090750086 106.799804688 146 109.507032851 146 123.799804688 c 6
 146 172 l 5
 22 172 l 5
 22 47 l 6
 22 16.337216203 38.088683974 0 62 0 c 6
 280 0 l 6
 308.586914062 -3.50088728041e-15 328 16.755859375 328 46 c 6
 328 456 l 6
 328 478.213867188 311.733398438 497 286 497 c 6
 163.797851562 497 l 6
 140.819335938 497 127.200195312 485.420898438 127.200195312 457 c 6
 127.200195312 360.995117188 l 6
 127.200195312 344.995117188 126.765625 336.995117188 117.200195312 336.995117188 c 6
 101.995117188 336.995117188 l 6
 94.4716796875 336.995117188 93.193359375 341.662109375 93.193359375 358.995117188 c 6
 93.193359375 496.799804688 l 5
 22 496.799804688 l 5
EndSplineSet
EndChar

StartChar: si_MatraLl
Encoding: 79 3571 495
GlifName: si_M_atraL_l
Width: 355
VWidth: 1000
GlyphClass: 2
Flags: HMW
LayerCount: 2
Back
Fore
SplineSet
22 496.799804688 m 5
 22 268 l 6
 22 245.365234375 35 235 55 235 c 6
 127.59375 235 l 6
 153.563476562 235 169.59375 242.905273438 169.59375 270 c 6
 169.59375 378.200195312 l 6
 169.59375 388.865234375 172.926757812 394.200195312 179.59375 394.200195312 c 6
 194.39453125 394.200195312 l 6
 200.39453125 394.200195312 203.39453125 389.533203125 203.39453125 380.200195312 c 6
 203.39453125 123.799804688 l 6
 203.39453125 112.466796875 201.59765625 106.799804688 191.59765625 106.799804688 c 6
 161 106.799804688 l 6
 147.090750086 106.799804688 146 109.507032851 146 123.799804688 c 6
 146 172 l 5
 22 172 l 5
 22 47 l 6
 22 16.337216203 38.088683974 0 62 0 c 6
 280 0 l 6
 308.586914062 -3.50088728041e-15 328 16.755859375 328 46 c 6
 328 456 l 6
 328 478.213867188 311.733398438 497 286 497 c 6
 163.797851562 497 l 6
 140.819335938 497 127.200195312 485.420898438 127.200195312 457 c 6
 127.200195312 360.995117188 l 6
 127.200195312 344.995117188 126.765625 336.995117188 117.200195312 336.995117188 c 6
 101.995117188 336.995117188 l 6
 94.4716796875 336.995117188 93.193359375 341.662109375 93.193359375 358.995117188 c 6
 93.193359375 496.799804688 l 5
 22 496.799804688 l 5
EndSplineSet
EndChar

StartChar: dottedcircle
Encoding: 84 9676 497
GlifName: dottedcircle
Width: 558
VWidth: 0
GlyphClass: 2
Flags: MW
LayerCount: 2
Back
Fore
SplineSet
96.4319 96.5092 m 257
 97.3724 115.593 110.126 128 129.272 128 c 256
 149.186 128 162.46 115.462 161.406 95.4908 c 256
 160.467 76.4077 147.713 64 128.567 64 c 256
 108.653 64 95.3811 76.5698 96.4319 96.5092 c 257
54.1717 163.959 m 257
 55.0098 182.906 66.882 196 85.9072 196 c 256
 105.689 196 118.091 182.796 117.151 163.041 c 256
 116.311 144.092 104.438 131 85.4131 131 c 256
 65.6299 131 53.2317 144.236 54.1717 163.959 c 257
161.517 53.5093 m 257
 162.449 72.4553 174.846 85 193.855 85 c 256
 213.614 85 226.535 72.284 225.491 52.4907 c 256
 224.558 33.544 212.161 21 193.151 21 c 256
 173.392 21 160.473 33.7489 161.517 53.5093 c 257
237.896 37.5093 m 257
 238.819 56.2816 250.885 69 269.735 69 c 256
 289.308 69 301.903 56.0334 300.87 36.4907 c 257
 299.947 17.7195 287.883 5 269.031 5 c 256
 249.459 5 236.864 17.9658 237.896 37.5093 c 257
39.5037 240.273 m 256
 40.027 259.447 52.6575 272 71.8525 272 c 256
 91.7662 272 105.042 259.462 103.987 239.49 c 256
 103.053 220.544 90.6566 208 71.6475 208 c 256
 51.9549 208 38.9277 220.579 39.5037 240.273 c 256
57.362 317.18 m 257
 58.6054 336.066 70.6209 349 89.5869 349 c 256
 109.449 349 121.715 335.574 120.316 315.82 c 257
 119.113 297.474 108.099 284 89.5928 284 c 256
 69.2775 284 55.93 296.876 57.362 317.18 c 257
316.517 53.5093 m 257
 317.449 72.4553 329.846 85 348.855 85 c 256
 368.614 85 381.535 72.284 380.491 52.4907 c 256
 379.558 33.544 367.161 21 348.151 21 c 256
 328.392 21 315.473 33.7489 316.517 53.5093 c 257
102.218 384.294 m 257
 103.657 402.978 116.358 415 135.145 415 c 256
 154.757 415 167.777 402.381 166.155 382.706 c 256
 164.718 364.022 152.015 352 133.228 352 c 256
 113.615 352 100.601 364.669 102.218 384.294 c 257
383.946 96.7361 m 257
 385.277 115.436 397.476 128 416.272 128 c 256
 435.92 128 448.393 114.89 446.892 95.2639 c 256
 445.562 76.5647 433.363 64 414.567 64 c 256
 394.919 64 382.45 77.158 383.946 96.7361 c 257
168.401 427.959 m 257
 169.248 447.052 181.486 460 200.639 460 c 256
 220.573 460 233.329 446.977 232.38 427.041 c 256
 231.535 407.949 219.298 395 200.145 395 c 256
 180.211 395 167.455 408.053 168.401 427.959 c 257
427.684 164.181 m 257
 428.947 183.371 441.641 196 460.907 196 c 256
 481.068 196 494.062 182.989 492.638 162.819 c 256
 491.373 143.628 478.68 131 459.413 131 c 256
 439.253 131 426.261 144.055 427.684 164.181 c 257
246.233 442.959 m 257
 247.071 461.906 259.209 475 278.347 475 c 256
 298.13 475 310.151 461.765 309.212 442.041 c 257
 308.372 423.092 296.5 410 277.475 410 c 256
 257.692 410 245.292 423.236 246.233 442.959 c 257
444.504 240.273 m 256
 445.027 259.447 457.658 272 476.853 272 c 256
 496.766 272 510.042 259.462 508.987 239.49 c 256
 508.053 220.544 495.657 208 476.647 208 c 256
 456.955 208 443.928 220.579 444.504 240.273 c 256
323.401 427.959 m 257
 324.248 447.052 336.486 460 355.639 460 c 256
 375.573 460 388.329 446.977 387.38 427.041 c 256
 386.535 407.949 374.298 395 355.145 395 c 256
 335.211 395 322.455 408.053 323.401 427.959 c 257
430.849 316.943 m 256
 431.705 336.236 444.27 349 463.587 349 c 256
 483.678 349 496.785 336.155 495.828 316.041 c 256
 494.975 296.779 482.409 284 463.093 284 c 256
 443.001 284 429.896 296.887 430.849 316.943 c 256
387.702 384.063 m 257
 388.734 403 401.646 415 420.645 415 c 256
 440.377 415 453.826 402.773 452.671 382.937 c 256
 451.64 364 438.726 352 419.728 352 c 256
 399.995 352 386.55 364.262 387.702 384.063 c 257
EndSplineSet
EndChar

